<svg xmlns="http://www.w3.org/2000/svg" viewBox="0 0 833.7 850"><title>18111 [Converted]</title><polygon points="479.9 425.2 589.8 261.5 425.7 371.2 261.6 261.5 371.6 425.2 261.6 588.9 425.7 479.2 589.8 588.9 479.9 425.2" style="fill:#656669"/><polygon points="393.3 453.6 589.8 585 261.6 257.5 393.3 453.6" style="fill:#14294c"/><polygon points="261.6 257.5 589.8 585 458.1 388.9 261.6 257.5" style="fill:#2e4160"/><polygon points="393.3 388.9 261.6 585 589.8 257.5 393.3 388.9" style="fill:#14294c"/><polygon points="589.8 257.5 261.6 585 458.1 453.6 589.8 257.5" style="fill:#2e4160"/><path d="M619.5,557.2a49.8,49.8,0,1,1-49.8-49.6A49.7,49.7,0,0,1,619.5,557.2Z" transform="translate(-144 -136)" style="fill:#14294c"/><path d="M571,678.5c-68.1,0-123.6-55.3-123.6-123.2S502.9,432.1,571,432.1s123.5,55.2,123.5,123.2S639.1,678.5,571,678.5Zm0-244.7c-67.1,0-121.8,54.5-121.8,121.5S503.9,676.7,571,676.7s121.7-54.5,121.7-121.4S638.1,433.8,571,433.8Z" transform="translate(-144 -136)" style="fill:#14294c"/><path d="M571,699.5c-79.7,0-144.6-64.7-144.6-144.2S491.3,411.1,571,411.1s144.5,64.7,144.5,144.2S650.7,699.5,571,699.5Zm0-280c-75.1,0-136.1,60.9-136.1,135.8s61,135.8,136.1,135.8,136.1-61,136.1-135.8S646,419.5,571,419.5Z" transform="translate(-144 -136)" style="fill:#14294c"/><path d="M571,893.8c-89.5,0-173.5-34.7-236.8-97.8a333.6,333.6,0,0,1,0-472.4c63.3-63.1,147.3-97.8,236.8-97.8s173.5,34.7,236.7,97.8,98.1,147,98.1,236.2S870.9,732.9,807.7,796,660.4,893.8,571,893.8Zm0-662c-87.9,0-170.4,34.1-232.5,96.1a327.4,327.4,0,0,0,0,463.8c62.1,62,144.6,96.1,232.5,96.1a328,328,0,1,0,0-656Z" transform="translate(-144 -136)" style="fill:#14294c"/><rect x="424.4" y="53.2" width="5.1" height="39.6" style="fill:#14294c"/><rect x="424.4" y="754.8" width="5.1" height="39.6" style="fill:#14294c"/><rect x="509.3" y="210" width="4" height="24.03" transform="translate(-174.8 -43.6) rotate(-10)" style="fill:#14294c"/><rect x="628.7" y="885.6" width="4" height="24.03" transform="translate(-290.5 -12.6) rotate(-10)" style="fill:#14294c"/><polygon points="311.7 113.4 303.4 90.9 307.2 89.5 315.4 112.1 311.7 113.4" style="fill:#14294c"/><polygon points="546.8 758.1 538.6 735.5 542.4 734.2 550.6 756.7 546.8 758.1" style="fill:#14294c"/><polygon points="259.4 138.1 247.3 117.3 250.8 115.3 262.9 136.1 259.4 138.1" style="fill:#14294c"/><polygon points="603.2 732.3 591.2 711.5 594.6 709.5 606.7 730.3 603.2 732.3" style="fill:#14294c"/><polygon points="212.2 171.5 196.7 153.1 199.8 150.5 215.3 168.9 212.2 171.5" style="fill:#14294c"/><polygon points="654.2 697.1 638.8 678.6 641.8 676.1 657.3 694.5 654.2 697.1" style="fill:#14294c"/><polygon points="171.6 212.6 153.1 197.1 155.7 194.1 174.1 209.5 171.6 212.6" style="fill:#14294c"/><polygon points="698.3 653.5 679.9 638.1 682.5 635 700.9 650.5 698.3 653.5" style="fill:#14294c"/><polygon points="138.7 260 117.8 248 119.8 244.6 140.7 256.6 138.7 260" style="fill:#14294c"/><polygon points="734.2 603 713.4 591 715.4 587.6 736.2 599.6 734.2 603" style="fill:#14294c"/><polygon points="114.6 312.5 91.9 304.2 93.3 300.5 115.9 308.7 114.6 312.5" style="fill:#14294c"/><polygon points="760.7 547.1 738.1 538.9 739.5 535.1 762.1 543.3 760.7 547.1" style="fill:#14294c"/><rect x="230.4" y="488.2" width="4" height="24.08" transform="translate(-444.5 506.5) rotate(-80)" style="fill:#14294c"/><rect x="907.6" y="607.3" width="4" height="24.08" transform="translate(-1.9 1271.9) rotate(-80)" style="fill:#14294c"/><rect x="55.5" y="421.2" width="39.7" height="5.12" style="fill:#14294c"/><rect x="758.8" y="421.2" width="39.7" height="5.12" style="fill:#14294c"/><rect x="220.3" y="617.4" width="24.1" height="3.99" transform="translate(-248.2 -86.1) rotate(-10)" style="fill:#14294c"/><rect x="897.5" y="498.2" width="24.1" height="3.99" transform="translate(-217.1 29.9) rotate(-10)" style="fill:#14294c"/><polygon points="93.3 547.1 91.9 543.3 114.6 535.1 115.9 538.9 93.3 547.1" style="fill:#14294c"/><polygon points="739.5 312.5 738.1 308.7 760.7 300.5 762.1 304.2 739.5 312.5" style="fill:#14294c"/><polygon points="119.8 603 117.8 599.6 138.7 587.6 140.7 591 119.8 603" style="fill:#14294c"/><polygon points="715.4 260 713.4 256.6 734.2 244.5 736.2 248 715.4 260" style="fill:#14294c"/><polygon points="155.7 653.5 153.1 650.5 171.6 635 174.1 638.1 155.7 653.5" style="fill:#14294c"/><polygon points="682.5 212.6 679.9 209.5 698.3 194.1 700.9 197.1 682.5 212.6" style="fill:#14294c"/><polygon points="199.8 697 196.7 694.5 212.2 676.1 215.3 678.6 199.8 697" style="fill:#14294c"/><polygon points="641.8 171.5 638.8 168.9 654.2 150.5 657.3 153.1 641.8 171.5" style="fill:#14294c"/><polygon points="250.8 732.3 247.4 730.3 259.4 709.5 262.9 711.5 250.8 732.3" style="fill:#14294c"/><polygon points="594.6 138.1 591.2 136.1 603.2 115.3 606.7 117.3 594.6 138.1" style="fill:#14294c"/><polygon points="307.2 758.1 303.4 756.7 311.7 734.2 315.4 735.5 307.2 758.1" style="fill:#14294c"/><polygon points="542.4 113.4 538.6 112.1 546.9 89.5 550.6 90.9 542.4 113.4" style="fill:#14294c"/><rect x="499.3" y="895.6" width="24" height="4" transform="translate(-605.3 1109.7) rotate(-80)" style="fill:#14294c"/><rect x="618.7" y="220" width="24" height="4" transform="translate(158.9 668.7) rotate(-80)" style="fill:#14294c"/><rect x="558.3" y="215" width="1.7" height="11.87" transform="matrix(1, -0.03, 0.03, 1, -151.32, -116.37)" style="fill:#14294c"/><rect x="582" y="892.7" width="1.7" height="11.87" transform="translate(-175.1 -115) rotate(-2)" style="fill:#14294c"/><rect x="546.4" y="215.7" width="1.7" height="11.87" transform="matrix(1, -0.07, 0.07, 1, -158.09, -97.24)" style="fill:#14294c"/><rect x="593.8" y="892.1" width="1.7" height="11.87" transform="translate(-205.3 -92.3) rotate(-4)" style="fill:#14294c"/><rect x="534.6" y="216.7" width="1.7" height="11.87" transform="translate(-164.3 -78.7) rotate(-6)" style="fill:#14294c"/><rect x="605.6" y="891" width="1.7" height="11.87" transform="translate(-234.6 -67.5) rotate(-6)" style="fill:#14294c"/><rect x="522.8" y="218.1" width="1.7" height="11.87" transform="translate(-170.1 -60.8) rotate(-8)" style="fill:#14294c"/><rect x="617.4" y="889.6" width="1.7" height="11.88" transform="translate(-262.8 -41) rotate(-8)" style="fill:#14294c"/><polygon points="356.8 98.2 354.3 86.5 356 86.2 358.4 97.8 356.8 98.2" style="fill:#14294c"/><rect x="640.8" y="885.5" width="1.7" height="11.87" transform="translate(-315.6 17.3) rotate(-12)" style="fill:#14294c"/><polygon points="345.4 100.8 342.5 89.3 344.2 88.9 347.1 100.4 345.4 100.8" style="fill:#14294c"/><polygon points="509.8 758.7 507 747.2 508.6 746.8 511.5 758.3 509.8 758.7" style="fill:#14294c"/><polygon points="334.2 103.8 330.9 92.4 332.5 92 335.8 103.4 334.2 103.8" style="fill:#14294c"/><polygon points="521.5 755.6 518.2 744.2 519.9 743.8 523.1 755.2 521.5 755.6" style="fill:#14294c"/><polygon points="323 107.3 319.3 96 321 95.5 324.7 106.7 323 107.3" style="fill:#14294c"/><polygon points="533.1 752.1 529.4 740.9 531 740.3 534.7 751.6 533.1 752.1" style="fill:#14294c"/><polygon points="301.1 115.3 296.7 104.3 298.3 103.6 302.7 114.6 301.1 115.3" style="fill:#14294c"/><polygon points="555.8 744 551.3 733 552.9 732.3 557.3 743.3 555.8 744" style="fill:#14294c"/><polygon points="290.4 119.8 285.6 109 287.2 108.3 292 119.2 290.4 119.8" style="fill:#14294c"/><polygon points="566.9 739.3 562 728.4 563.6 727.7 568.4 738.6 566.9 739.3" style="fill:#14294c"/><polygon points="279.9 124.8 274.7 114.1 276.2 113.4 281.4 124 279.9 124.8" style="fill:#14294c"/><polygon points="577.8 734.2 572.6 723.6 574.1 722.8 579.4 733.5 577.8 734.2" style="fill:#14294c"/><polygon points="269.5 130.1 263.9 119.6 265.4 118.8 271 129.3 269.5 130.1" style="fill:#14294c"/><polygon points="588.6 728.8 583 718.3 584.5 717.5 590.1 728 588.6 728.8" style="fill:#14294c"/><polygon points="249.4 141.8 243.1 131.7 244.5 130.8 250.8 140.9 249.4 141.8" style="fill:#14294c"/><polygon points="609.5 716.8 603.2 706.7 604.7 705.8 611 715.9 609.5 716.8" style="fill:#14294c"/><polygon points="239.6 148.1 232.9 138.3 234.4 137.3 241 147.2 239.6 148.1" style="fill:#14294c"/><polygon points="619.7 710.3 613 700.4 614.4 699.5 621.1 709.3 619.7 710.3" style="fill:#14294c"/><polygon points="230.1 154.8 223.1 145.2 224.5 144.2 231.5 153.8 230.1 154.8" style="fill:#14294c"/><polygon points="629.6 703.4 622.6 693.8 624 692.8 631 702.4 629.6 703.4" style="fill:#14294c"/><polygon points="220.8 161.8 213.5 152.5 214.8 151.4 222.1 160.8 220.8 161.8" style="fill:#14294c"/><polygon points="639.2 696.2 631.9 686.8 633.2 685.8 640.6 695.1 639.2 696.2" style="fill:#14294c"/><polygon points="203 176.8 195 168 196.3 166.9 204.2 175.7 203 176.8" style="fill:#14294c"/><polygon points="657.8 680.7 649.8 671.9 651.1 670.8 659 679.6 657.8 680.7" style="fill:#14294c"/><polygon points="194.5 184.8 186.2 176.2 187.4 175.1 195.7 183.6 194.5 184.8" style="fill:#14294c"/><polygon points="666.6 672.5 658.3 664 659.6 662.8 667.8 671.4 666.6 672.5" style="fill:#14294c"/><polygon points="186.2 193 177.7 184.8 178.9 183.5 187.4 191.8 186.2 193" style="fill:#14294c"/><polygon points="675.2 664 666.6 655.8 667.8 654.6 676.3 662.8 675.2 664" style="fill:#14294c"/><polygon points="178.3 201.5 169.5 193.6 170.6 192.3 179.5 200.3 178.3 201.5" style="fill:#14294c"/><polygon points="683.4 655.3 674.6 647.3 675.7 646 684.5 654 683.4 655.3" style="fill:#14294c"/><polygon points="163.4 219.4 154 212.1 155.1 210.7 164.4 218.1 163.4 219.4" style="fill:#14294c"/><polygon points="699 636.9 689.6 629.5 690.6 628.2 700 635.5 699 636.9" style="fill:#14294c"/><polygon points="156.4 228.7 146.8 221.7 147.8 220.3 157.4 227.3 156.4 228.7" style="fill:#14294c"/><polygon points="706.3 627.3 696.6 620.3 697.6 618.9 707.3 625.9 706.3 627.3" style="fill:#14294c"/><polygon points="149.7 238.2 139.9 231.6 140.8 230.2 150.7 236.8 149.7 238.2" style="fill:#14294c"/><polygon points="713.2 617.4 703.3 610.8 704.3 609.4 714.2 616 713.2 617.4" style="fill:#14294c"/><polygon points="143.4 248 133.3 241.7 134.2 240.3 144.3 246.6 143.4 248" style="fill:#14294c"/><polygon points="719.8 607.3 709.7 601 710.6 599.6 720.7 605.9 719.8 607.3" style="fill:#14294c"/><polygon points="131.8 268.2 121.3 262.6 122.1 261.1 132.6 266.7 131.8 268.2" style="fill:#14294c"/><polygon points="731.9 586.5 721.4 580.9 722.2 579.4 732.7 585 731.9 586.5" style="fill:#14294c"/><polygon points="126.6 278.5 115.9 273.3 116.6 271.8 127.3 277 126.6 278.5" style="fill:#14294c"/><polygon points="737.4 575.8 726.7 570.6 727.5 569 738.2 574.3 737.4 575.8" style="fill:#14294c"/><polygon points="121.7 289.1 110.8 284.3 111.5 282.7 122.3 287.5 121.7 289.1" style="fill:#14294c"/><polygon points="742.6 564.9 731.7 560.1 732.4 558.5 743.3 563.3 742.6 564.9" style="fill:#14294c"/><polygon points="117.1 299.8 106.1 295.4 106.7 293.8 117.8 298.2 117.1 299.8" style="fill:#14294c"/><polygon points="747.3 553.8 736.3 549.4 736.9 547.8 747.9 552.2 747.3 553.8" style="fill:#14294c"/><polygon points="109.2 321.7 97.9 318 98.4 316.4 109.7 320.1 109.2 321.7" style="fill:#14294c"/><polygon points="755.6 531.2 744.3 527.5 744.8 525.9 756.1 529.6 755.6 531.2" style="fill:#14294c"/><polygon points="105.8 332.8 94.4 329.5 94.9 327.9 106.3 331.2 105.8 332.8" style="fill:#14294c"/><rect x="896.8" y="647.3" width="1.7" height="11.9" transform="translate(-121.4 1200.5) rotate(-74)" style="fill:#14294c"/><rect x="240.4" y="471.8" width="1.7" height="11.9" transform="translate(-424.6 460.5) rotate(-76)" style="fill:#14294c"/><polygon points="762.3 508.1 750.8 505.2 751.2 503.6 762.7 506.4 762.3 508.1" style="fill:#14294c"/><rect x="237.7" y="483.4" width="1.7" height="11.9" transform="translate(-433.6 485) rotate(-78)" style="fill:#14294c"/><polygon points="765.1 496.4 753.4 493.9 753.8 492.2 765.4 494.7 765.1 496.4" style="fill:#14294c"/><rect x="233.6" y="506.7" width="1.7" height="11.9" transform="translate(-449.7 537.6) rotate(-82)" style="fill:#14294c"/><rect x="906.6" y="601" width="1.7" height="11.9" transform="matrix(0.14, -0.99, 0.99, 0.14, 36.4, 1285.37)" style="fill:#14294c"/><rect x="232.2" y="518.4" width="1.7" height="11.9" transform="translate(-456.8 565.3) rotate(-84)" style="fill:#14294c"/><rect x="908.1" y="589.3" width="1.7" height="11.9" transform="translate(78 1301) rotate(-84)" style="fill:#14294c"/><rect x="231.1" y="530.2" width="1.7" height="11.9" transform="matrix(0.07, -1, 1, 0.07, -462.99, 594.19)" style="fill:#14294c"/><rect x="909.1" y="577.5" width="1.7" height="11.9" transform="translate(120.8 1314.7) rotate(-86)" style="fill:#14294c"/><rect x="230.5" y="542" width="1.7" height="11.9" transform="translate(-468.3 624) rotate(-88)" style="fill:#14294c"/><rect x="909.7" y="565.7" width="1.7" height="11.9" transform="translate(163.6 1325.8) rotate(-88)" style="fill:#14294c"/><rect x="225.4" y="570.8" width="11.9" height="1.71" transform="matrix(1, -0.03, 0.03, 1, -163.76, -127.58)" style="fill:#14294c"/><rect x="904.6" y="547.1" width="11.9" height="1.71" transform="translate(-162.5 -103.9) rotate(-2)" style="fill:#14294c"/><rect x="226" y="582.6" width="11.9" height="1.71" transform="translate(-184.1 -118.4) rotate(-4)" style="fill:#14294c"/><rect x="904" y="535.3" width="11.9" height="1.71" transform="translate(-179.1 -71.2) rotate(-4)" style="fill:#14294c"/><rect x="227.1" y="594.4" width="11.9" height="1.71" transform="translate(-205 -108.3) rotate(-6)" style="fill:#14294c"/><rect x="903" y="523.5" width="11.9" height="1.71" transform="translate(-194.1 -37.5) rotate(-6)" style="fill:#14294c"/><rect x="228.5" y="606.1" width="11.9" height="1.71" transform="translate(-226.3 -97.4) rotate(-8)" style="fill:#14294c"/><rect x="901.5" y="511.8" width="11.9" height="1.71" transform="translate(-206.6 -4.4) rotate(-8)" style="fill:#14294c"/><polygon points="89 496.4 88.6 494.7 100.3 492.2 100.6 493.9 89 496.4" style="fill:#14294c"/><polygon points="753.8 355.4 753.4 353.7 765.1 351.2 765.4 352.9 753.8 355.4" style="fill:#14294c"/><rect x="235.3" y="641" width="11.9" height="1.71" transform="translate(-292.4 -58.4) rotate(-14)" style="fill:#14294c"/><polygon points="751.2 344 750.8 342.4 762.3 339.5 762.7 341.2 751.2 344" style="fill:#14294c"/><polygon points="94.9 519.7 94.4 518.1 105.8 514.8 106.3 516.4 94.9 519.7" style="fill:#14294c"/><polygon points="748.2 332.8 747.7 331.2 759.2 327.9 759.6 329.5 748.2 332.8" style="fill:#14294c"/><polygon points="98.4 531.2 97.9 529.6 109.2 525.9 109.7 527.5 98.4 531.2" style="fill:#14294c"/><polygon points="744.8 321.7 744.3 320.1 755.6 316.4 756.1 318 744.8 321.7" style="fill:#14294c"/><polygon points="106.7 553.8 106.1 552.2 117.1 547.8 117.8 549.4 106.7 553.8" style="fill:#14294c"/><polygon points="736.9 299.8 736.3 298.2 747.3 293.8 747.9 295.4 736.9 299.8" style="fill:#14294c"/><polygon points="111.5 564.9 110.8 563.3 121.7 558.5 122.4 560.1 111.5 564.9" style="fill:#14294c"/><polygon points="732.4 289.1 731.7 287.5 742.6 282.7 743.3 284.3 732.4 289.1" style="fill:#14294c"/><polygon points="116.6 575.8 115.9 574.3 126.6 569 127.3 570.6 116.6 575.8" style="fill:#14294c"/><polygon points="727.5 278.5 726.7 277 737.4 271.8 738.2 273.3 727.5 278.5" style="fill:#14294c"/><polygon points="122.1 586.5 121.3 585 131.8 579.4 132.6 580.9 122.1 586.5" style="fill:#14294c"/><polygon points="722.2 268.2 721.4 266.7 731.9 261.1 732.7 262.6 722.2 268.2" style="fill:#14294c"/><polygon points="134.2 607.3 133.3 605.9 143.4 599.6 144.3 601 134.2 607.3" style="fill:#14294c"/><polygon points="710.6 248 709.7 246.6 719.8 240.3 720.7 241.7 710.6 248" style="fill:#14294c"/><polygon points="140.8 617.4 139.9 616 149.7 609.4 150.7 610.8 140.8 617.4" style="fill:#14294c"/><polygon points="704.3 238.2 703.3 236.8 713.2 230.2 714.2 231.6 704.3 238.2" style="fill:#14294c"/><polygon points="147.8 627.3 146.8 625.9 156.4 618.9 157.4 620.3 147.8 627.3" style="fill:#14294c"/><polygon points="697.6 228.7 696.6 227.3 706.3 220.3 707.3 221.7 697.6 228.7" style="fill:#14294c"/><polygon points="155.1 636.8 154 635.5 163.4 628.2 164.4 629.5 155.1 636.8" style="fill:#14294c"/><polygon points="690.6 219.4 689.6 218 699 210.7 700 212.1 690.6 219.4" style="fill:#14294c"/><polygon points="170.6 655.3 169.5 654 178.3 646 179.5 647.3 170.6 655.3" style="fill:#14294c"/><polygon points="675.7 201.5 674.6 200.3 683.4 192.3 684.6 193.6 675.7 201.5" style="fill:#14294c"/><polygon points="178.9 664 177.7 662.8 186.3 654.6 187.4 655.8 178.9 664" style="fill:#14294c"/><polygon points="667.8 193 666.6 191.8 675.2 183.5 676.3 184.8 667.8 193" style="fill:#14294c"/><polygon points="187.4 672.5 186.2 671.3 194.5 662.8 195.7 664 187.4 672.5" style="fill:#14294c"/><polygon points="659.6 184.8 658.3 183.6 666.6 175.1 667.8 176.2 659.6 184.8" style="fill:#14294c"/><polygon points="196.3 680.7 195 679.6 203 670.8 204.2 671.9 196.3 680.7" style="fill:#14294c"/><polygon points="651.1 176.8 649.8 175.7 657.8 166.9 659 168 651.1 176.8" style="fill:#14294c"/><polygon points="214.8 696.2 213.5 695.1 220.8 685.7 222.1 686.8 214.8 696.2" style="fill:#14294c"/><polygon points="633.2 161.8 631.9 160.8 639.2 151.4 640.6 152.5 633.2 161.8" style="fill:#14294c"/><polygon points="224.5 703.4 223.1 702.4 230.1 692.8 231.5 693.8 224.5 703.4" style="fill:#14294c"/><polygon points="624 154.8 622.6 153.8 629.6 144.2 631 145.2 624 154.8" style="fill:#14294c"/><polygon points="234.4 710.3 233 709.3 239.6 699.5 241 700.4 234.4 710.3" style="fill:#14294c"/><polygon points="614.4 148.1 613 147.2 619.7 137.3 621.1 138.3 614.4 148.1" style="fill:#14294c"/><polygon points="244.5 716.8 243.1 715.9 249.4 705.8 250.8 706.7 244.5 716.8" style="fill:#14294c"/><polygon points="604.7 141.8 603.2 140.9 609.5 130.8 611 131.7 604.7 141.8" style="fill:#14294c"/><polygon points="265.4 728.8 263.9 728 269.5 717.5 271 718.3 265.4 728.8" style="fill:#14294c"/><polygon points="584.5 130.1 583 129.3 588.6 118.8 590.1 119.6 584.5 130.1" style="fill:#14294c"/><polygon points="276.2 734.2 274.7 733.5 279.9 722.8 281.4 723.5 276.2 734.2" style="fill:#14294c"/><polygon points="574.1 124.8 572.6 124 577.8 113.4 579.4 114.1 574.1 124.8" style="fill:#14294c"/><polygon points="287.2 739.3 285.6 738.6 290.4 727.7 292 728.4 287.2 739.3" style="fill:#14294c"/><polygon points="563.6 119.8 562 119.1 566.9 108.3 568.4 109 563.6 119.8" style="fill:#14294c"/><polygon points="298.3 744 296.7 743.3 301.2 732.3 302.7 733 298.3 744" style="fill:#14294c"/><polygon points="552.9 115.3 551.3 114.6 555.8 103.6 557.3 104.3 552.9 115.3" style="fill:#14294c"/><polygon points="321 752.1 319.4 751.6 323 740.3 324.7 740.8 321 752.1" style="fill:#14294c"/><polygon points="531 107.3 529.4 106.7 533.1 95.4 534.7 96 531 107.3" style="fill:#14294c"/><polygon points="332.5 755.6 330.9 755.2 334.2 743.7 335.8 744.2 332.5 755.6" style="fill:#14294c"/><polygon points="519.9 103.8 518.2 103.4 521.5 92 523.1 92.4 519.9 103.8" style="fill:#14294c"/><polygon points="344.2 758.7 342.5 758.3 345.4 746.8 347.1 747.2 344.2 758.7" style="fill:#14294c"/><polygon points="508.6 100.8 507 100.4 509.8 88.9 511.5 89.3 508.6 100.8" style="fill:#14294c"/><rect x="494.4" y="890.6" width="11.9" height="1.71" transform="translate(-619.5 1059.7) rotate(-78)" style="fill:#14294c"/><polygon points="497.3 98.2 495.6 97.8 498.1 86.2 499.7 86.5 497.3 98.2" style="fill:#14294c"/><rect x="517.7" y="894.7" width="11.9" height="1.71" transform="translate(-579.9 1153.7) rotate(-82)" style="fill:#14294c"/><rect x="612.3" y="223.2" width="11.9" height="1.71" transform="translate(166.5 669.2) rotate(-82)" style="fill:#14294c"/><rect x="529.5" y="896.1" width="11.9" height="1.71" transform="translate(-556.4 1200.1) rotate(-84)" style="fill:#14294c"/><rect x="600.6" y="221.8" width="11.9" height="1.71" transform="translate(177.9 666.6) rotate(-84)" style="fill:#14294c"/><rect x="541.3" y="897.1" width="11.9" height="1.71" transform="translate(-530.5 1245.6) rotate(-86)" style="fill:#14294c"/><rect x="588.7" y="220.7" width="11.9" height="1.71" transform="translate(188.4 663.4) rotate(-86)" style="fill:#14294c"/><rect x="553.2" y="897.8" width="11.9" height="1.71" transform="translate(-502.3 1290.2) rotate(-88)" style="fill:#14294c"/><rect x="576.9" y="220.1" width="11.9" height="1.71" transform="matrix(0.04, -1, 1, 0.04, 197.48, 659.64)" style="fill:#14294c"/><path d="M571,932.4A372.4,372.4,0,1,1,915.1,414.8a372,372,0,0,1-80,408.5A373.5,373.5,0,0,1,571,932.4Zm0-741.2a368.7,368.7,0,1,0,143.8,29A366.2,366.2,0,0,0,571,191.2Z" transform="translate(-144 -136)" style="fill:#14294c"/><path d="M571.1,787.1h-6.6a2.8,2.8,0,0,1-2.7-2.8,2.8,2.8,0,0,1,2.8-2.7h6.5a2.7,2.7,0,1,1,0,5.4Zm13.1-.3a2.8,2.8,0,0,1-2.7-2.6,2.7,2.7,0,0,1,2.5-2.9l6.5-.5a2.9,2.9,0,0,1,3,2.5,2.8,2.8,0,0,1-2.5,3l-6.6.5Zm-32.7-.5h-.2l-6.6-.6a2.8,2.8,0,0,1-2.4-3.1,2.7,2.7,0,0,1,3-2.4l6.4.7a2.6,2.6,0,0,1,2.5,2.9A2.7,2.7,0,0,1,551.5,786.3Zm52.2-1.5a2.8,2.8,0,0,1-2.7-2.3,2.7,2.7,0,0,1,2.3-3.1l6.4-1.1a2.9,2.9,0,0,1,3.2,2.2,2.7,2.7,0,0,1-2.2,3.2l-6.6,1.1Zm-71.7-1h-.4l-6.6-1.3a2.7,2.7,0,1,1,1.1-5.3l6.4,1.2a2.6,2.6,0,0,1,2.2,3.1A2.7,2.7,0,0,1,532,783.8Zm91-2.7a2.7,2.7,0,0,1-.6-5.4l6.3-1.6a2.8,2.8,0,0,1,3.3,2,2.7,2.7,0,0,1-1.9,3.3l-6.4,1.6Zm-110.2-1.5h-.7l-6.3-1.8a2.7,2.7,0,1,1,1.5-5.2l6.2,1.7a2.8,2.8,0,0,1,2,3.4A2.7,2.7,0,0,1,512.8,779.6Zm129.1-3.8a2.9,2.9,0,0,1-2.6-1.9,2.8,2.8,0,0,1,1.8-3.5l6.1-2.1a2.7,2.7,0,0,1,3.5,1.7,2.8,2.8,0,0,1-1.7,3.5l-6.2,2.1Zm-147.8-2.1h-.9l-6.2-2.4a2.8,2.8,0,0,1-1.6-3.5,2.9,2.9,0,0,1,3.6-1.6l6,2.3a2.7,2.7,0,0,1,1.7,3.5A2.8,2.8,0,0,1,494.1,773.7Zm166.1-4.9a2.8,2.8,0,0,1-2.5-1.6,2.8,2.8,0,0,1,1.5-3.6l5.8-2.7a2.8,2.8,0,0,1,2.4,5l-6.1,2.7Zm-184.3-2.6-1.1-.2-6-2.9a2.7,2.7,0,0,1-1.2-3.7,2.8,2.8,0,0,1,3.7-1.2l5.8,2.8a2.6,2.6,0,0,1,1.3,3.6A2.7,2.7,0,0,1,475.9,766.2Zm202-5.9a2.8,2.8,0,0,1-2.4-1.5,2.6,2.6,0,0,1,1.1-3.7c1.9-1,3.8-2,5.6-3.1a2.7,2.7,0,0,1,3.7,1,2.6,2.6,0,0,1-1,3.7l-5.7,3.2A2.2,2.2,0,0,1,677.9,760.3Zm-219.4-3.1a3.3,3.3,0,0,1-1.4-.4l-5.7-3.4a2.8,2.8,0,0,1,2.9-4.7c1.8,1.2,3.7,2.3,5.6,3.4a2.7,2.7,0,0,1,1,3.7A2.9,2.9,0,0,1,458.5,757.2Zm236.2-7a2.7,2.7,0,0,1-2.3-1.2,2.7,2.7,0,0,1,.8-3.8l5.3-3.6a2.8,2.8,0,0,1,3.9.6,2.9,2.9,0,0,1-.7,3.9l-5.5,3.7A2.8,2.8,0,0,1,694.7,750.2Zm-252.8-3.6a3.3,3.3,0,0,1-1.6-.5c-1.8-1.2-3.6-2.6-5.3-3.9a2.7,2.7,0,1,1,3.2-4.3l5.3,3.7a2.8,2.8,0,0,1,.7,3.8A2.8,2.8,0,0,1,441.9,746.6Zm268.7-7.9a2.5,2.5,0,0,1-2.1-1,2.6,2.6,0,0,1,.4-3.8l5-4.1a2.7,2.7,0,1,1,3.5,4.2l-5.1,4.2A2.6,2.6,0,0,1,710.6,738.7Zm-284.3-4a2.3,2.3,0,0,1-1.7-.7l-5.1-4.3a2.8,2.8,0,1,1,3.7-4.1c1.6,1.4,3.2,2.9,4.9,4.2a2.8,2.8,0,0,1-1.8,4.9Zm299.2-8.8a2.8,2.8,0,0,1-2-.8,2.7,2.7,0,0,1,.1-3.9l4.6-4.5a2.9,2.9,0,0,1,3.9,0,2.7,2.7,0,0,1,0,3.9l-4.8,4.6A2.6,2.6,0,0,1,725.5,725.9Zm-313.7-4.5a2.4,2.4,0,0,1-1.9-.8c-1.6-1.5-3.1-3.1-4.6-4.7a2.7,2.7,0,0,1,.1-3.9,2.8,2.8,0,0,1,3.9.1c1.4,1.6,3,3.2,4.5,4.7a2.8,2.8,0,0,1,0,3.8A2.7,2.7,0,0,1,411.8,721.4Zm327.3-9.5a2.6,2.6,0,0,1-1.8-.7,2.8,2.8,0,0,1-.2-3.9l4.2-4.8a2.7,2.7,0,0,1,3.9-.4,2.8,2.8,0,0,1,.3,3.9l-4.3,5A2.9,2.9,0,0,1,739.1,711.9ZM398.6,707a2.5,2.5,0,0,1-2.1-1c-1.4-1.6-2.9-3.4-4.2-5.1a2.6,2.6,0,0,1,.4-3.8,2.7,2.7,0,0,1,3.9.4c1.3,1.7,2.7,3.4,4.1,5a2.8,2.8,0,0,1-.4,3.9A2.7,2.7,0,0,1,398.6,707Zm353-10.3a3.4,3.4,0,0,1-1.7-.5,2.8,2.8,0,0,1-.5-3.9l3.8-5.2a2.8,2.8,0,0,1,3.8-.7,2.7,2.7,0,0,1,.6,3.8l-3.8,5.4A2.9,2.9,0,0,1,751.6,696.7Zm-365-5.2a2.5,2.5,0,0,1-2.2-1.2l-3.8-5.4a2.7,2.7,0,0,1,.8-3.8,2.7,2.7,0,0,1,3.8.8l3.6,5.3a2.7,2.7,0,0,1-.6,3.8A3.3,3.3,0,0,1,386.6,691.5Zm376-11a2.3,2.3,0,0,1-1.4-.4,2.8,2.8,0,0,1-.9-3.8l3.3-5.5a2.8,2.8,0,0,1,3.8-1,2.7,2.7,0,0,1,1,3.7l-3.5,5.7A2.8,2.8,0,0,1,762.6,680.5ZM376,675a2.7,2.7,0,0,1-2.3-1.4l-3.3-5.7a2.7,2.7,0,0,1,1.1-3.7,2.7,2.7,0,0,1,3.7,1.1l3.2,5.6a2.7,2.7,0,0,1-1,3.7A2.3,2.3,0,0,1,376,675Zm396.2-11.6a2.7,2.7,0,0,1-1.2-.3,2.7,2.7,0,0,1-1.2-3.7l2.8-5.8a2.6,2.6,0,0,1,3.6-1.3,2.7,2.7,0,0,1,1.4,3.6c-1,2-2,4-2.9,6A2.9,2.9,0,0,1,772.2,663.4ZM367,657.7a2.6,2.6,0,0,1-2.5-1.6q-1.5-3-2.7-6a2.7,2.7,0,1,1,5-2.2c.8,2,1.7,3.9,2.6,5.9a2.6,2.6,0,0,1-1.3,3.6Zm413.3-12.2-1-.2a2.9,2.9,0,0,1-1.6-3.6c.8-2,1.6-4,2.3-6a2.8,2.8,0,0,1,3.5-1.7,2.8,2.8,0,0,1,1.7,3.5l-2.4,6.2A2.7,2.7,0,0,1,780.3,645.5Zm-420.9-5.9a2.7,2.7,0,0,1-2.5-1.8c-.8-2.1-1.5-4.2-2.2-6.2a2.8,2.8,0,0,1,1.7-3.5,2.8,2.8,0,0,1,3.5,1.7c.6,2.1,1.4,4.1,2.1,6.1a2.7,2.7,0,0,1-1.6,3.5A1.8,1.8,0,0,1,359.4,639.6Zm427.3-12.7h-.8a2.7,2.7,0,0,1-1.8-3.4l1.8-6.2a2.7,2.7,0,0,1,3.3-1.9,2.8,2.8,0,0,1,2,3.3l-1.8,6.4A2.8,2.8,0,0,1,786.7,626.9Zm-433.2-6a2.7,2.7,0,0,1-2.6-2c-.6-2.1-1.2-4.3-1.7-6.4a2.8,2.8,0,0,1,2.1-3.3,2.9,2.9,0,0,1,3.3,2c.5,2.1,1,4.2,1.6,6.3a2.8,2.8,0,0,1-2,3.3Zm438-13H791a2.8,2.8,0,0,1-2.2-3.2c.5-2.1.9-4.3,1.2-6.4a2.7,2.7,0,1,1,5.4,1c-.3,2.1-.8,4.3-1.2,6.5A2.7,2.7,0,0,1,791.5,607.9Zm-442.3-6.1a2.6,2.6,0,0,1-2.6-2.3c-.4-2.1-.8-4.3-1.1-6.5a2.7,2.7,0,1,1,5.4-.8c.3,2.2.7,4.3,1,6.4a2.7,2.7,0,0,1-2.2,3.2Zm445.4-13.2h-.3a2.7,2.7,0,0,1-2.4-3c.2-2.2.5-4.3.6-6.5a2.8,2.8,0,0,1,5.5.5c-.2,2.2-.4,4.4-.7,6.6A2.6,2.6,0,0,1,794.6,588.6Zm-447.9-6.2a2.7,2.7,0,0,1-2.7-2.5c-.2-2.2-.4-4.4-.5-6.6a2.7,2.7,0,0,1,2.6-2.9,2.6,2.6,0,0,1,2.8,2.6c.2,2.1.3,4.3.5,6.4a2.9,2.9,0,0,1-2.5,3ZM796,569.1h-.1a2.7,2.7,0,0,1-2.6-2.9c.1-2.1.1-4.3.1-6.4v-.6a2.7,2.7,0,0,1,2.7-2.7,2.8,2.8,0,0,1,2.8,2.7v.6c0,2.2-.1,4.4-.1,6.6A2.8,2.8,0,0,1,796,569.1Zm-450.2-6.3a2.7,2.7,0,0,1-2.7-2.7v-.3c0-2.1,0-4.2.1-6.3a2.8,2.8,0,0,1,2.8-2.7,2.7,2.7,0,0,1,2.6,2.8v6.5A2.8,2.8,0,0,1,345.8,562.8Zm449.9-13.9a2.7,2.7,0,0,1-2.7-2.6c-.1-2.1-.3-4.3-.5-6.4a2.8,2.8,0,1,1,5.5-.5c.1,2.2.3,4.4.4,6.6a2.7,2.7,0,0,1-2.5,2.9Zm-449.1-5.7h-.2a2.7,2.7,0,0,1-2.5-2.9c.2-2.2.4-4.4.7-6.6a2.6,2.6,0,0,1,3-2.4,2.7,2.7,0,0,1,2.4,3l-.6,6.4A2.7,2.7,0,0,1,346.6,543.2Zm447.1-13.8a2.7,2.7,0,0,1-2.7-2.3c-.3-2.1-.7-4.3-1.1-6.4a2.7,2.7,0,0,1,2.3-3.1,2.6,2.6,0,0,1,3.1,2.2c.4,2.1.8,4.3,1.1,6.5a2.7,2.7,0,0,1-2.3,3.1Zm-444.5-5.6h-.5a2.7,2.7,0,0,1-2.2-3.2c.3-2.1.7-4.3,1.2-6.5a2.7,2.7,0,0,1,3.2-2.1,2.7,2.7,0,0,1,2.2,3.2q-.7,3.1-1.2,6.3A2.8,2.8,0,0,1,349.2,523.8ZM790,510.2a2.8,2.8,0,0,1-2.7-2.1c-.5-2.1-1-4.2-1.6-6.3a2.7,2.7,0,0,1,5.3-1.4c.6,2.1,1.1,4.3,1.6,6.4a2.6,2.6,0,0,1-2,3.3Zm-436.6-5.5h-.7a2.8,2.8,0,0,1-2-3.4l1.8-6.3a2.8,2.8,0,0,1,3.4-1.9,2.8,2.8,0,0,1,1.9,3.4c-.7,2.1-1.2,4.2-1.8,6.2A2.7,2.7,0,0,1,353.4,504.7Zm431.2-13.3a2.8,2.8,0,0,1-2.6-1.9c-.7-2-1.4-4.1-2.2-6.1a2.8,2.8,0,0,1,1.7-3.5,2.7,2.7,0,0,1,3.5,1.6l2.2,6.3a2.7,2.7,0,0,1-1.7,3.4ZM359.2,486l-.9-.2a2.7,2.7,0,0,1-1.6-3.5c.7-2,1.5-4.1,2.3-6.2a2.8,2.8,0,0,1,3.6-1.5,2.6,2.6,0,0,1,1.5,3.5c-.8,2-1.6,4.1-2.3,6.1A2.7,2.7,0,0,1,359.2,486Zm418.4-12.9a2.6,2.6,0,0,1-2.5-1.7l-2.7-5.8a2.8,2.8,0,0,1,1.3-3.7,2.9,2.9,0,0,1,3.7,1.4l2.7,6a2.8,2.8,0,0,1-1.4,3.6Zm-410.9-5.3a2.3,2.3,0,0,1-1.1-.2,2.6,2.6,0,0,1-1.3-3.6c.9-2.1,1.9-4.1,2.9-6a2.6,2.6,0,0,1,3.6-1.2,2.7,2.7,0,0,1,1.3,3.6c-1,1.9-2,3.9-2.9,5.9A2.6,2.6,0,0,1,366.7,467.8ZM769,455.5a2.7,2.7,0,0,1-2.4-1.4c-1.1-1.9-2.1-3.8-3.2-5.6a2.8,2.8,0,0,1,1-3.8,2.7,2.7,0,0,1,3.7,1l3.3,5.8a2.8,2.8,0,0,1-1.1,3.7A3.1,3.1,0,0,1,769,455.5Zm-393.2-5.1a3.1,3.1,0,0,1-1.3-.3,2.8,2.8,0,0,1-1.1-3.8l3.5-5.7a2.7,2.7,0,0,1,3.7-.8,2.6,2.6,0,0,1,.9,3.7l-3.3,5.6A2.8,2.8,0,0,1,375.8,450.4Zm383.1-11.7a2.7,2.7,0,0,1-2.3-1.2c-1.2-1.8-2.4-3.6-3.7-5.3a2.8,2.8,0,0,1,.7-3.8,2.7,2.7,0,0,1,3.8.6l3.8,5.5a2.7,2.7,0,0,1-2.3,4.2Zm-372.5-4.8a3,3,0,0,1-1.6-.5,2.8,2.8,0,0,1-.7-3.8l3.9-5.4a2.8,2.8,0,0,1,3.9-.5,2.7,2.7,0,0,1,.5,3.8l-3.8,5.2A2.6,2.6,0,0,1,386.4,433.9Zm360.9-11a2.8,2.8,0,0,1-2.1-1c-1.3-1.7-2.7-3.4-4.1-5a2.7,2.7,0,1,1,4.2-3.5c1.4,1.6,2.8,3.4,4.2,5.1a2.8,2.8,0,0,1-2.2,4.4Zm-349-4.6a2.7,2.7,0,0,1-1.7-.6,2.8,2.8,0,0,1-.4-3.9c1.5-1.6,2.9-3.3,4.4-5a2.7,2.7,0,0,1,3.8-.2,2.7,2.7,0,0,1,.3,3.9c-1.5,1.6-2.9,3.2-4.3,4.9A2.7,2.7,0,0,1,398.3,418.3Zm336.2-10.2a2.8,2.8,0,0,1-2-.8l-4.5-4.7a2.7,2.7,0,0,1,3.8-3.8c1.6,1.5,3.1,3.1,4.7,4.7a2.7,2.7,0,0,1-2,4.6Zm-322.9-4.2a2.8,2.8,0,0,1-1.9-4.7l4.7-4.6a2.8,2.8,0,0,1,3.8,4c-1.6,1.4-3.2,3-4.7,4.5A2.7,2.7,0,0,1,411.6,403.9Zm308.8-9.4a3.4,3.4,0,0,1-1.9-.7c-1.6-1.4-3.2-2.9-4.9-4.2a2.8,2.8,0,1,1,3.6-4.2l5,4.3a2.8,2.8,0,0,1,.2,3.9A2.7,2.7,0,0,1,720.4,394.5Zm-294.3-3.9a2.5,2.5,0,0,1-2.1-1,2.6,2.6,0,0,1,.3-3.8l5.1-4.2a2.8,2.8,0,0,1,3.9.5,2.7,2.7,0,0,1-.5,3.8l-5,4.1A2.7,2.7,0,0,1,426.1,390.6Zm279-8.5a3.3,3.3,0,0,1-1.6-.5l-5.3-3.8a2.7,2.7,0,0,1-.6-3.8,2.8,2.8,0,0,1,3.8-.7l5.4,3.9a2.7,2.7,0,0,1,.5,3.8A2.7,2.7,0,0,1,705.1,382.1Zm-263.5-3.4a2.5,2.5,0,0,1-2.2-1.2,2.7,2.7,0,0,1,.6-3.8l5.5-3.7a2.7,2.7,0,0,1,3.8.8,2.6,2.6,0,0,1-.8,3.7c-1.8,1.2-3.6,2.4-5.3,3.7A3.3,3.3,0,0,1,441.6,378.7Zm247.2-7.6a2.7,2.7,0,0,1-1.4-.4l-5.6-3.3a2.7,2.7,0,1,1,2.8-4.7l5.7,3.4a2.7,2.7,0,0,1-1.5,5Zm-230.7-3a2.8,2.8,0,0,1-1.4-5.1l5.8-3.2a2.8,2.8,0,0,1,3.7,1.1,2.7,2.7,0,0,1-1.1,3.7l-5.6,3.1A2.3,2.3,0,0,1,458.1,368.1Zm213.6-6.5a3.1,3.1,0,0,1-1.3-.3l-5.8-2.8a2.8,2.8,0,0,1,2.3-5l6,2.9a2.8,2.8,0,0,1-1.2,5.2ZM475.5,359a2.7,2.7,0,0,1-2.5-1.5,2.9,2.9,0,0,1,1.3-3.7l6.1-2.7a2.8,2.8,0,0,1,3.6,1.4,2.8,2.8,0,0,1-1.5,3.6l-5.8,2.7A2.5,2.5,0,0,1,475.5,359Zm178.2-5.4-1-.2-6.1-2.3a2.7,2.7,0,0,1-1.6-3.5,2.8,2.8,0,0,1,3.5-1.7l6.2,2.4a2.7,2.7,0,0,1,1.6,3.5A2.9,2.9,0,0,1,653.7,353.6Zm-160.1-2.1a2.7,2.7,0,0,1-1-5.3c2.1-.7,4.2-1.5,6.3-2.1a2.7,2.7,0,1,1,1.7,5.1l-6.1,2.2Zm141.5-4.3-.7-.2-6.3-1.7a2.7,2.7,0,0,1,1.4-5.3l6.4,1.8a2.8,2.8,0,0,1,1.9,3.4A2.9,2.9,0,0,1,635.1,347.2Zm-122.8-1.6a2.7,2.7,0,0,1-2.6-2,2.7,2.7,0,0,1,1.9-3.4l6.4-1.6a2.8,2.8,0,0,1,3.3,2,2.6,2.6,0,0,1-2,3.3l-6.3,1.6Zm103.8-3.2h-.6q-3.2-.7-6.3-1.2a2.9,2.9,0,0,1-2.3-3.2,2.7,2.7,0,0,1,3.2-2.2l6.5,1.2a2.7,2.7,0,0,1-.5,5.4Zm-84.6-1a2.8,2.8,0,0,1-2.7-2.3,2.7,2.7,0,0,1,2.2-3.2l6.5-1a2.7,2.7,0,0,1,3.1,2.3,2.7,2.7,0,0,1-2.3,3.1l-6.4,1Zm65.2-2h-.3l-6.5-.6a2.7,2.7,0,1,1,.5-5.4c2.2.1,4.4.4,6.6.6a2.7,2.7,0,0,1,2.4,3A2.8,2.8,0,0,1,596.7,339.4Zm-45.8-.6a2.7,2.7,0,0,1-2.7-2.5,2.9,2.9,0,0,1,2.5-3l6.6-.5a2.8,2.8,0,0,1,2.9,2.6,2.8,2.8,0,0,1-2.6,2.9l-6.4.5Zm26.2-.8h-6.5a2.7,2.7,0,0,1-2.8-2.7,2.8,2.8,0,0,1,2.7-2.8h6.7a2.8,2.8,0,0,1-.1,5.5Z" transform="translate(-144 -136)" style="fill:#14294c"/><path d="M975,558.1H960.5v13.4h16.2v4.1h-21V538.3h20.2v4H960.5v11.8H975Z" transform="translate(-144 -136)" style="fill:#14294c"/><path d="M977.7,576.6h-23V537.3h22.2v6H961.5v9.8H976v6H961.5v11.4h16.2Zm-21-2h19v-2.1H959.5V557.1H974v-2H959.5V541.3h15.4v-2H956.7Z" transform="translate(-144 -136)" style="fill:#14294c"/><path d="M558.3,174.3V137h5.3l11.9,18.9a88.4,88.4,0,0,1,6.7,12.1h.2a147.1,147.1,0,0,1-.6-15.3V137h4.5v37.3h-4.8l-11.9-18.9a121.8,121.8,0,0,1-7-12.5h-.2c.3,4.7.4,9.2.4,15.3v16Z" transform="translate(-144 -136)" style="fill:#14294c"/><path d="M587.3,175.3h-6.4l-12.1-19.4a100.3,100.3,0,0,1-5.1-8.7c.1,3.3.1,6.8.1,11.1v17h-6.5V136h6.8l12.3,19.3c1.7,2.8,3.3,5.4,4.6,8-.2-3.5-.2-6.9-.2-10.7V136h6.5Zm-5.3-2h3.3V138h-2.5v14.6c0,5.4.1,10.1.5,15.2v.7l-1.6.8-.5-.9a91.4,91.4,0,0,0-6.6-12L563,138h-3.7v35.3h2.5v-15c0-6.2-.1-10.6-.4-15.3v-.7l1.7-.6.4.8a105.3,105.3,0,0,0,6.9,12.3Z" transform="translate(-144 -136)" style="fill:#14294c"/><path d="M562.2,978.6a17.4,17.4,0,0,0,8.6,2.4c5,0,7.9-2.6,7.9-6.3s-2-5.5-7.1-7.5-9.8-5.3-9.8-10.5,4.8-10.1,12-10.1a16.5,16.5,0,0,1,8.3,1.8l-1.3,3.9a14.7,14.7,0,0,0-7.1-1.8c-5.1,0-7.1,3.1-7.1,5.6s2.3,5.2,7.5,7.2,9.5,5.5,9.5,11S579.3,985,570.5,985c-3.6,0-7.5-1-9.5-2.4Z" transform="translate(-144 -136)" style="fill:#14294c"/><path d="M570.5,986c-3.7,0-7.8-1-10.1-2.5l-.6-.5,1.8-5.9,1.1.6a15.8,15.8,0,0,0,8.1,2.3c4.3,0,6.9-2,6.9-5.3s-1.1-4.5-6.4-6.5c-7.1-2.5-10.5-6.3-10.5-11.5s5.3-11.1,13-11.1a18.6,18.6,0,0,1,8.8,1.9l.7.4-2,5.9-1-.6a13.4,13.4,0,0,0-6.6-1.7c-4.5,0-6.1,2.5-6.1,4.6s1.7,4.3,6.8,6.3c7.2,2.7,10.2,6.3,10.2,11.9S580.9,986,570.5,986Zm-8.3-3.8a19.2,19.2,0,0,0,8.3,1.8c7.4,0,12.1-3.8,12.1-9.7s-2.5-7.6-8.9-10-8.1-4-8.1-8.2,2.5-6.6,8.1-6.6a16.1,16.1,0,0,1,6.5,1.4l.7-2a17.4,17.4,0,0,0-7.1-1.3c-6.5,0-11,3.7-11,9.1s2.9,7.4,9.2,9.6c4.6,1.8,7.7,3.9,7.7,8.4s-3.5,7.3-8.9,7.3a18.5,18.5,0,0,1-8-1.9Z" transform="translate(-144 -136)" style="fill:#14294c"/><path d="M150.3,548.8l3.5,13.6c.8,3,1.5,5.7,2,8.5h.2c.6-2.7,1.5-5.6,2.4-8.5l4.4-13.6h4.1l4.1,13.4c1,3.2,1.8,6,2.4,8.7h.2a70.7,70.7,0,0,1,2-8.7l3.9-13.4h4.8l-8.7,26.8h-4.4l-4.1-12.8a87.9,87.9,0,0,1-2.4-8.8h-.1c-.7,3.2-1.5,6-2.4,8.8l-4.4,12.8h-4.4l-8.1-26.8Z" transform="translate(-144 -136)" style="fill:#14294c"/><path d="M176.4,576.6h-5.9l-4.4-13.5c-.5-1.8-1-3.4-1.4-5.1-.5,1.9-1.1,3.6-1.6,5.1l-4.6,13.5h-5.8L144,547.8h7.1l3.7,14.3c.4,1.7.8,3.2,1.2,4.8.5-1.6.9-3.2,1.4-4.7l4.6-14.4h5.6l4.4,14.1c.5,1.7,1,3.3,1.4,4.8.4-1.6.8-3.2,1.3-4.7l4-14.2h7Zm-4.5-2h3l8-24.8h-2.7l-3.6,12.7a59.8,59.8,0,0,0-2,8.6l-.2.8h-1.8l-.2-.8c-.6-2.6-1.3-5.4-2.3-8.6l-4-12.7h-2.6l-4.2,12.9c-.8,2.8-1.7,5.8-2.3,8.4l-.2.8H155v-.8c-.5-2.7-1.3-5.5-2-8.4l-3.4-12.9h-2.9l7.5,24.8h3l4.1-12.1a71.5,71.5,0,0,0,2.4-8.7l.2-.8h1.7l.2.8c.6,3,1.4,5.7,2.3,8.7Z" transform="translate(-144 -136)" style="fill:#14294c"/><path d="M864.7,249.7l14.7-14.6,2.4,2.4-1.9,12.9a49.3,49.3,0,0,1-1.7,7.9h.1a80.9,80.9,0,0,1,5.8-6.2l6.1-6.1,2.1,2.1-14.7,14.6-2.2-2.3,2-12.9a50.5,50.5,0,0,1,1.7-8.1H879l-5.9,6.2-6.3,6.2Z" transform="translate(-144 -136)" style="fill:#14294c"/><path d="M897.3,268.6l-6.7-6.7-5.3,5.3,7.5,7.5-1.6,1.5-9.7-9.7,14.7-14.6,9.3,9.4-1.6,1.5-7.1-7-4.6,4.6,6.7,6.7Z" transform="translate(-144 -136)" style="fill:#14294c"/><path d="M257.3,274.3l-14.6-14.7,2.4-2.4,13,1.9a61.5,61.5,0,0,1,7.8,1.7h.1a79.2,79.2,0,0,1-6.3-5.7l-6.1-6.2,2.1-2.1,14.6,14.7-2.2,2.2-13-1.9c-2.8-.5-5.6-1-8.1-1.7h0l6.2,5.8,6.2,6.3Z" transform="translate(-144 -136)" style="fill:#14294c"/><path d="M277,254.7l-19-10.3,2.4-2.3,9.4,5.4a67.8,67.8,0,0,1,6.4,3.8h0a61,61,0,0,1-3.6-6.5l-5.1-9.7,2.3-2.3,9.5,5.4a52.5,52.5,0,0,1,6.3,3.8h0c-1.2-1.9-2.4-4.1-3.7-6.4l-5.1-9.7,2.3-2.3,9.8,19.6-2.4,2.3-9.8-5.5a56.8,56.8,0,0,1-5.9-3.6h0a63.9,63.9,0,0,1,3.4,6.1l5.2,10.1Z" transform="translate(-144 -136)" style="fill:#14294c"/><path d="M292.4,865.4a12.1,12.1,0,0,0-3-5c-2.3-2.3-4.6-2.6-6.1-1.1s-1.2,3.1.3,6.2,2.5,6.6.4,8.6-6.2,1.8-9.6-1.6a13.4,13.4,0,0,1-3.1-4.5l2.2-.9a10.2,10.2,0,0,0,2.6,3.9c2.3,2.4,4.4,2.1,5.4,1.1s1-3.1-.6-6.2-2.2-6.6,0-8.7,6.2-2.3,10.2,1.8a14.6,14.6,0,0,1,3.5,5.3Z" transform="translate(-144 -136)" style="fill:#14294c"/><path d="M279,847.3l-10.3,19-2.4-2.4,5.4-9.4c1.4-2.3,2.7-4.6,3.8-6.3h0a60.1,60.1,0,0,1-6.5,3.7l-9.7,5.1-2.4-2.4,5.4-9.5c1.3-2.2,2.6-4.4,3.8-6.2h0l-6.5,3.6-9.7,5.1-2.2-2.3,19.6-9.7,2.3,2.4-5.5,9.7a43.4,43.4,0,0,1-3.7,5.9h.1a52.7,52.7,0,0,1,6.1-3.5l10.1-5.1Z" transform="translate(-144 -136)" style="fill:#14294c"/><polygon points="718.1 139.5 694.7 162.8 697.6 165.6 720.9 142.3 718.1 139.5" style="fill:#14294c"/><polygon points="169.2 687.1 145.9 710.4 148.7 713.2 172 689.9 169.2 687.1" style="fill:#14294c"/><polygon points="692.5 682 689.7 684.9 713 708.1 715.8 705.3 692.5 682" style="fill:#14294c"/><polygon points="140.8 137.3 164.1 160.5 167 157.7 143.6 134.4 140.8 137.3" style="fill:#14294c"/><path d="M887.2,840.1a13,13,0,0,0-4.9,3c-2.3,2.3-2.6,4.6-1.2,6.1s3.1,1.3,6.2-.3,6.7-2.4,8.7-.4,1.8,6.2-1.6,9.6a13.7,13.7,0,0,1-4.5,3l-1-2.1a10.4,10.4,0,0,0,4-2.6c2.4-2.3,2.1-4.4,1.1-5.4s-3.1-1-6.3.6-6.5,2.2-8.7,0-2.2-6.1,1.8-10.2a14.4,14.4,0,0,1,5.4-3.4Z" transform="translate(-144 -136)" style="fill:#14294c"/><path d="M869.9,866.4l6.7-6.6-5.3-5.3-7.5,7.4-1.6-1.6,9.8-9.6,14.6,14.6-9.3,9.3-1.6-1.6,7.1-7-4.7-4.7-6.7,6.7Z" transform="translate(-144 -136)" style="fill:#14294c"/><path d="M612.8,557.2a39.5,39.5,0,0,0-1-8.5L575.1,244.8h0L538.4,548.7a39.5,39.5,0,0,0-1,8.5,12.7,12.7,0,0,0,.1,2,14.1,14.1,0,0,0-.1,2,40.5,40.5,0,0,0,1,8.6l36.7,303.8h0l36.7-303.8a40.5,40.5,0,0,0,1-8.6c0-.6-.1-1.3-.1-2S612.8,557.9,612.8,557.2Zm-37.7,19.9a17.9,17.9,0,1,1,18.2-17.9A18.1,18.1,0,0,1,575.1,577.1Z" transform="translate(-144 -136)" style="fill:#1a1a1a"/><path d="M568.7,597.9a34.1,34.1,0,0,0,8.5-1l304.6-36.6h0L577.2,523.7a39.5,39.5,0,0,0-8.5-1h-4.1a39.5,39.5,0,0,0-8.5,1L251.5,560.3h0l304.6,36.6a34.1,34.1,0,0,0,8.5,1h4.1Zm-20-37.6a18,18,0,1,1,17.9,18.2A18.1,18.1,0,0,1,548.7,560.3Z" transform="translate(-144 -136)" style="fill:#1a1a1a"/><path d="M570.3,573.1a18.2,18.2,0,0,1-18.2-18.2H254.9l304.6,36.6a34.9,34.9,0,0,0,8.6,1,37.6,37.6,0,0,0,37.6-37.6H588.5A18.2,18.2,0,0,1,570.3,573.1Z" transform="translate(-144 -136)" style="fill:#2e4160"/><path d="M568.1,517.3a40.5,40.5,0,0,0-8.6,1L254.9,554.9H552.1a18.2,18.2,0,0,1,36.4,0h17.2A37.6,37.6,0,0,0,568.1,517.3Z" transform="translate(-144 -136)" style="fill:#14294c"/><path d="M569.6,536.8a18.1,18.1,0,0,1,18.2,18.1H885L580.4,518.3a39.5,39.5,0,0,0-8.5-1,37.6,37.6,0,0,0-37.7,37.6h17.2A18.2,18.2,0,0,1,569.6,536.8Z" transform="translate(-144 -136)" style="fill:#14294c"/><path d="M571.9,592.5a34.1,34.1,0,0,0,8.5-1L885,554.9H587.8a18.2,18.2,0,0,1-36.4,0H534.2A37.6,37.6,0,0,0,571.9,592.5Z" transform="translate(-144 -136)" style="fill:#2e4160"/><path d="M590.8,555.5a21.1,21.1,0,1,1-21.1-21.1A21.1,21.1,0,0,1,590.8,555.5Z" transform="translate(-144 -136)" style="fill:#cfd1d2"/><path d="M589.6,555.5a19.9,19.9,0,1,1-19.9-19.9A19.9,19.9,0,0,1,589.6,555.5Z" transform="translate(-144 -136)" style="fill:#919395"/><ellipse cx="425.7" cy="419.5" rx="11.3" ry="11.2" style="fill:#cfd1d2"/><ellipse cx="425.7" cy="419.5" rx="9.8" ry="9.8" style="fill:#a5a6a9"/><path d="M577.9,555.5a8.2,8.2,0,1,1-16.4,0,8.2,8.2,0,1,1,16.4,0Z" transform="translate(-144 -136)" style="fill:#1a1a1a"/><path d="M575.5,555.5a5.8,5.8,0,0,1-11.6,0,5.8,5.8,0,0,1,11.6,0Z" transform="translate(-144 -136)" style="fill:#14294c"/></svg>