<svg xmlns="http://www.w3.org/2000/svg" viewBox="0 0 834.9 851"><title>CompassDark</title><polygon points="480.5 425.7 590.5 262 426.4 371.7 262.3 262 372.3 425.7 262.3 589.4 426.4 479.7 590.5 589.4 480.5 425.7" style="fill:#fff;stroke:#fff;stroke-miterlimit:10"/><polygon points="394 454.1 590.5 585.5 262.3 258 394 454.1" style="fill:#fff;stroke:#fff;stroke-miterlimit:10"/><polygon points="262.3 258 590.5 585.5 458.8 389.4 262.3 258" style="fill:#fff;stroke:#fff;stroke-miterlimit:10"/><polygon points="394 389.4 262.3 585.5 590.5 258 394 389.4" style="fill:#fff;stroke:#fff;stroke-miterlimit:10"/><polygon points="590.5 258 262.3 585.5 458.8 454.1 590.5 258" style="fill:#fff;stroke:#fff;stroke-miterlimit:10"/><path d="M619.5,557.2a49.8,49.8,0,1,1-49.8-49.6A49.7,49.7,0,0,1,619.5,557.2Z" transform="translate(-143.3 -135.5)" style="fill:#fff;stroke:#fff;stroke-miterlimit:10"/><path d="M571,678.5c-68.1,0-123.6-55.3-123.6-123.2S502.9,432.1,571,432.1s123.5,55.2,123.5,123.2S639.1,678.5,571,678.5Zm0-244.7c-67.1,0-121.8,54.5-121.8,121.5S503.9,676.7,571,676.7s121.7-54.5,121.7-121.4S638.1,433.8,571,433.8Z" transform="translate(-143.3 -135.5)" style="fill:#fff;stroke:#fff;stroke-miterlimit:10"/><path d="M571,699.5c-79.7,0-144.6-64.7-144.6-144.2S491.3,411.1,571,411.1s144.5,64.7,144.5,144.2S650.7,699.5,571,699.5Zm0-280c-75.1,0-136.1,60.9-136.1,135.8s61,135.8,136.1,135.8,136.1-61,136.1-135.8S646,419.5,571,419.5Z" transform="translate(-143.3 -135.5)" style="fill:#fff;stroke:#fff;stroke-miterlimit:10"/><path d="M571,893.8c-89.5,0-173.5-34.7-236.8-97.8a333.6,333.6,0,0,1,0-472.4c63.3-63.1,147.3-97.8,236.8-97.8s173.5,34.7,236.7,97.8,98.1,147,98.1,236.2S870.9,732.9,807.7,796,660.4,893.8,571,893.8Zm0-662c-87.9,0-170.4,34.1-232.5,96.1a327.4,327.4,0,0,0,0,463.8c62.1,62,144.6,96.1,232.5,96.1a328,328,0,1,0,0-656Z" transform="translate(-143.3 -135.5)" style="fill:#fff;stroke:#fff;stroke-miterlimit:10"/><rect x="425.1" y="53.7" width="5.1" height="39.6" style="fill:#fff;stroke:#fff;stroke-miterlimit:10"/><rect x="425.1" y="755.3" width="5.1" height="39.6" style="fill:#fff;stroke:#fff;stroke-miterlimit:10"/><rect x="509.3" y="210" width="4" height="24.03" transform="translate(-174.1 -43.1) rotate(-10)" style="fill:#fff;stroke:#fff;stroke-miterlimit:10"/><rect x="628.7" y="885.6" width="4" height="24.03" transform="translate(-289.8 -12.1) rotate(-10)" style="fill:#fff;stroke:#fff;stroke-miterlimit:10"/><polygon points="312.3 113.9 304.1 91.4 307.9 90 316.1 112.6 312.3 113.9" style="fill:#fff;stroke:#fff;stroke-miterlimit:10"/><polygon points="547.5 758.6 539.3 736 543 734.7 551.3 757.2 547.5 758.6" style="fill:#fff;stroke:#fff;stroke-miterlimit:10"/><polygon points="260.1 138.6 248 117.8 251.5 115.8 263.5 136.6 260.1 138.6" style="fill:#fff;stroke:#fff;stroke-miterlimit:10"/><polygon points="603.9 732.8 591.9 712 595.3 710 607.4 730.8 603.9 732.8" style="fill:#fff;stroke:#fff;stroke-miterlimit:10"/><polygon points="212.9 172 197.4 153.6 200.5 151 216 169.4 212.9 172" style="fill:#fff;stroke:#fff;stroke-miterlimit:10"/><polygon points="654.9 697.6 639.4 679.1 642.5 676.6 658 695 654.9 697.6" style="fill:#fff;stroke:#fff;stroke-miterlimit:10"/><polygon points="172.2 213.1 153.8 197.6 156.4 194.6 174.8 210 172.2 213.1" style="fill:#fff;stroke:#fff;stroke-miterlimit:10"/><polygon points="699 654 680.6 638.6 683.1 635.5 701.6 651 699 654" style="fill:#fff;stroke:#fff;stroke-miterlimit:10"/><polygon points="139.4 260.5 118.5 248.5 120.5 245.1 141.4 257.1 139.4 260.5" style="fill:#fff;stroke:#fff;stroke-miterlimit:10"/><polygon points="734.9 603.5 714 591.5 716 588.1 736.9 600.1 734.9 603.5" style="fill:#fff;stroke:#fff;stroke-miterlimit:10"/><polygon points="115.2 313 92.6 304.7 94 301 116.6 309.2 115.2 313" style="fill:#fff;stroke:#fff;stroke-miterlimit:10"/><polygon points="761.4 547.6 738.8 539.4 740.2 535.6 762.8 543.8 761.4 547.6" style="fill:#fff;stroke:#fff;stroke-miterlimit:10"/><rect x="230.4" y="488.2" width="4" height="24.08" transform="translate(-443.8 507) rotate(-80)" style="fill:#fff;stroke:#fff;stroke-miterlimit:10"/><rect x="907.6" y="607.3" width="4" height="24.08" transform="translate(-1.3 1272.4) rotate(-80)" style="fill:#fff;stroke:#fff;stroke-miterlimit:10"/><rect x="56.2" y="421.7" width="39.7" height="5.12" style="fill:#fff;stroke:#fff;stroke-miterlimit:10"/><rect x="759.5" y="421.7" width="39.7" height="5.12" style="fill:#fff;stroke:#fff;stroke-miterlimit:10"/><rect x="220.3" y="617.4" width="24.1" height="3.99" transform="translate(-247.5 -85.6) rotate(-10)" style="fill:#fff;stroke:#fff;stroke-miterlimit:10"/><rect x="897.5" y="498.2" width="24.1" height="3.99" transform="translate(-216.4 30.4) rotate(-10)" style="fill:#fff;stroke:#fff;stroke-miterlimit:10"/><polygon points="94 547.6 92.6 543.8 115.2 535.6 116.6 539.4 94 547.6" style="fill:#fff;stroke:#fff;stroke-miterlimit:10"/><polygon points="740.2 313 738.8 309.2 761.4 301 762.8 304.7 740.2 313" style="fill:#fff;stroke:#fff;stroke-miterlimit:10"/><polygon points="120.5 603.5 118.5 600.1 139.4 588.1 141.4 591.5 120.5 603.5" style="fill:#fff;stroke:#fff;stroke-miterlimit:10"/><polygon points="716 260.5 714 257.1 734.9 245 736.9 248.5 716 260.5" style="fill:#fff;stroke:#fff;stroke-miterlimit:10"/><polygon points="156.4 654 153.8 651 172.2 635.5 174.8 638.6 156.4 654" style="fill:#fff;stroke:#fff;stroke-miterlimit:10"/><polygon points="683.1 213.1 680.6 210 699 194.6 701.6 197.6 683.1 213.1" style="fill:#fff;stroke:#fff;stroke-miterlimit:10"/><polygon points="200.5 697.5 197.4 695 212.9 676.6 216 679.1 200.5 697.5" style="fill:#fff;stroke:#fff;stroke-miterlimit:10"/><polygon points="642.5 172 639.4 169.4 654.9 151 658 153.6 642.5 172" style="fill:#fff;stroke:#fff;stroke-miterlimit:10"/><polygon points="251.5 732.8 248 730.8 260.1 710 263.5 712 251.5 732.8" style="fill:#fff;stroke:#fff;stroke-miterlimit:10"/><polygon points="595.3 138.6 591.9 136.6 603.9 115.8 607.4 117.8 595.3 138.6" style="fill:#fff;stroke:#fff;stroke-miterlimit:10"/><polygon points="307.9 758.6 304.1 757.2 312.3 734.7 316.1 736 307.9 758.6" style="fill:#fff;stroke:#fff;stroke-miterlimit:10"/><polygon points="543 113.9 539.3 112.6 547.5 90 551.3 91.4 543 113.9" style="fill:#fff;stroke:#fff;stroke-miterlimit:10"/><rect x="499.3" y="895.6" width="24" height="4" transform="translate(-604.6 1110.2) rotate(-80)" style="fill:#fff;stroke:#fff;stroke-miterlimit:10"/><rect x="618.7" y="220" width="24" height="4" transform="translate(159.5 669.2) rotate(-80)" style="fill:#fff;stroke:#fff;stroke-miterlimit:10"/><rect x="558.3" y="215" width="1.7" height="11.87" transform="matrix(1, -0.03, 0.03, 1, -150.65, -115.87)" style="fill:#fff;stroke:#fff;stroke-miterlimit:10"/><rect x="582" y="892.7" width="1.7" height="11.87" transform="translate(-174.4 -114.5) rotate(-2)" style="fill:#fff;stroke:#fff;stroke-miterlimit:10"/><rect x="546.4" y="215.7" width="1.7" height="11.87" transform="matrix(1, -0.07, 0.07, 1, -157.42, -96.74)" style="fill:#fff;stroke:#fff;stroke-miterlimit:10"/><rect x="593.8" y="892.1" width="1.7" height="11.87" transform="translate(-204.6 -91.8) rotate(-4)" style="fill:#fff;stroke:#fff;stroke-miterlimit:10"/><rect x="534.6" y="216.7" width="1.7" height="11.87" transform="translate(-163.6 -78.2) rotate(-6)" style="fill:#fff;stroke:#fff;stroke-miterlimit:10"/><rect x="605.6" y="891" width="1.7" height="11.87" transform="translate(-233.9 -67) rotate(-6)" style="fill:#fff;stroke:#fff;stroke-miterlimit:10"/><rect x="522.8" y="218.1" width="1.7" height="11.87" transform="translate(-169.4 -60.3) rotate(-8)" style="fill:#fff;stroke:#fff;stroke-miterlimit:10"/><rect x="617.4" y="889.6" width="1.7" height="11.88" transform="translate(-262.2 -40.5) rotate(-8)" style="fill:#fff;stroke:#fff;stroke-miterlimit:10"/><polygon points="357.4 98.7 355 87 356.6 86.7 359.1 98.3 357.4 98.7" style="fill:#fff;stroke:#fff;stroke-miterlimit:10"/><rect x="640.8" y="885.5" width="1.7" height="11.87" transform="translate(-315 17.8) rotate(-12)" style="fill:#fff;stroke:#fff;stroke-miterlimit:10"/><polygon points="346.1 101.3 343.2 89.8 344.9 89.4 347.7 100.9 346.1 101.3" style="fill:#fff;stroke:#fff;stroke-miterlimit:10"/><polygon points="510.5 759.2 507.6 747.7 509.3 747.3 512.2 758.8 510.5 759.2" style="fill:#fff;stroke:#fff;stroke-miterlimit:10"/><polygon points="334.8 104.3 331.6 92.9 333.2 92.5 336.5 103.9 334.8 104.3" style="fill:#fff;stroke:#fff;stroke-miterlimit:10"/><polygon points="522.2 756.1 518.9 744.7 520.5 744.3 523.8 755.7 522.2 756.1" style="fill:#fff;stroke:#fff;stroke-miterlimit:10"/><polygon points="323.7 107.8 320 96.5 321.6 96 325.3 107.2 323.7 107.8" style="fill:#fff;stroke:#fff;stroke-miterlimit:10"/><polygon points="533.7 752.6 530 741.4 531.7 740.8 535.4 752.1 533.7 752.6" style="fill:#fff;stroke:#fff;stroke-miterlimit:10"/><polygon points="301.8 115.8 297.4 104.8 299 104.1 303.4 115.1 301.8 115.8" style="fill:#fff;stroke:#fff;stroke-miterlimit:10"/><polygon points="556.4 744.5 552 733.5 553.6 732.8 558 743.8 556.4 744.5" style="fill:#fff;stroke:#fff;stroke-miterlimit:10"/><polygon points="291.1 120.3 286.3 109.5 287.8 108.8 292.7 119.7 291.1 120.3" style="fill:#fff;stroke:#fff;stroke-miterlimit:10"/><polygon points="567.5 739.8 562.7 728.9 564.3 728.2 569.1 739.1 567.5 739.8" style="fill:#fff;stroke:#fff;stroke-miterlimit:10"/><polygon points="280.6 125.3 275.3 114.6 276.9 113.9 282.1 124.5 280.6 125.3" style="fill:#fff;stroke:#fff;stroke-miterlimit:10"/><polygon points="578.5 734.7 573.3 724.1 574.8 723.3 580 734 578.5 734.7" style="fill:#fff;stroke:#fff;stroke-miterlimit:10"/><polygon points="270.2 130.6 264.6 120.1 266.1 119.3 271.7 129.8 270.2 130.6" style="fill:#fff;stroke:#fff;stroke-miterlimit:10"/><polygon points="589.3 729.3 583.7 718.8 585.2 718 590.8 728.5 589.3 729.3" style="fill:#fff;stroke:#fff;stroke-miterlimit:10"/><polygon points="250 142.3 243.7 132.2 245.2 131.3 251.5 141.4 250 142.3" style="fill:#fff;stroke:#fff;stroke-miterlimit:10"/><polygon points="610.2 717.3 603.9 707.2 605.3 706.3 611.6 716.4 610.2 717.3" style="fill:#fff;stroke:#fff;stroke-miterlimit:10"/><polygon points="240.3 148.6 233.6 138.8 235 137.8 241.7 147.7 240.3 148.6" style="fill:#fff;stroke:#fff;stroke-miterlimit:10"/><polygon points="620.3 710.8 613.7 700.9 615.1 700 621.8 709.8 620.3 710.8" style="fill:#fff;stroke:#fff;stroke-miterlimit:10"/><polygon points="230.7 155.3 223.8 145.7 225.1 144.7 232.1 154.3 230.7 155.3" style="fill:#fff;stroke:#fff;stroke-miterlimit:10"/><polygon points="630.2 703.9 623.2 694.3 624.6 693.3 631.6 702.9 630.2 703.9" style="fill:#fff;stroke:#fff;stroke-miterlimit:10"/><polygon points="221.5 162.3 214.1 153 215.5 151.9 222.8 161.3 221.5 162.3" style="fill:#fff;stroke:#fff;stroke-miterlimit:10"/><polygon points="639.9 696.7 632.6 687.3 633.9 686.3 641.2 695.6 639.9 696.7" style="fill:#fff;stroke:#fff;stroke-miterlimit:10"/><polygon points="203.6 177.3 195.7 168.5 197 167.4 204.9 176.2 203.6 177.3" style="fill:#fff;stroke:#fff;stroke-miterlimit:10"/><polygon points="658.4 681.2 650.5 672.4 651.7 671.3 659.7 680.1 658.4 681.2" style="fill:#fff;stroke:#fff;stroke-miterlimit:10"/><polygon points="195.1 185.3 186.9 176.7 188.1 175.6 196.4 184.1 195.1 185.3" style="fill:#fff;stroke:#fff;stroke-miterlimit:10"/><polygon points="667.3 673 659 664.5 660.2 663.3 668.5 671.9 667.3 673" style="fill:#fff;stroke:#fff;stroke-miterlimit:10"/><polygon points="186.9 193.5 178.4 185.3 179.6 184 188.1 192.3 186.9 193.5" style="fill:#fff;stroke:#fff;stroke-miterlimit:10"/><polygon points="675.8 664.5 667.3 656.3 668.5 655.1 677 663.3 675.8 664.5" style="fill:#fff;stroke:#fff;stroke-miterlimit:10"/><polygon points="179 202 170.2 194.1 171.3 192.8 180.1 200.8 179 202" style="fill:#fff;stroke:#fff;stroke-miterlimit:10"/><polygon points="684.1 655.8 675.2 647.8 676.4 646.5 685.2 654.5 684.1 655.8" style="fill:#fff;stroke:#fff;stroke-miterlimit:10"/><polygon points="164.1 219.9 154.7 212.6 155.7 211.2 165.1 218.6 164.1 219.9" style="fill:#fff;stroke:#fff;stroke-miterlimit:10"/><polygon points="699.6 637.4 690.3 630 691.3 628.7 700.7 636 699.6 637.4" style="fill:#fff;stroke:#fff;stroke-miterlimit:10"/><polygon points="157.1 229.2 147.4 222.2 148.5 220.8 158.1 227.8 157.1 229.2" style="fill:#fff;stroke:#fff;stroke-miterlimit:10"/><polygon points="706.9 627.8 697.3 620.8 698.3 619.4 707.9 626.4 706.9 627.8" style="fill:#fff;stroke:#fff;stroke-miterlimit:10"/><polygon points="150.4 238.7 140.5 232.1 141.5 230.7 151.4 237.3 150.4 238.7" style="fill:#fff;stroke:#fff;stroke-miterlimit:10"/><polygon points="713.9 617.9 704 611.3 705 609.9 714.8 616.5 713.9 617.9" style="fill:#fff;stroke:#fff;stroke-miterlimit:10"/><polygon points="144.1 248.5 134 242.2 134.9 240.8 145 247.1 144.1 248.5" style="fill:#fff;stroke:#fff;stroke-miterlimit:10"/><polygon points="720.5 607.8 710.4 601.5 711.3 600.1 721.4 606.4 720.5 607.8" style="fill:#fff;stroke:#fff;stroke-miterlimit:10"/><polygon points="132.5 268.7 122 263.1 122.8 261.6 133.3 267.2 132.5 268.7" style="fill:#fff;stroke:#fff;stroke-miterlimit:10"/><polygon points="732.6 587 722.1 581.4 722.9 579.9 733.4 585.5 732.6 587" style="fill:#fff;stroke:#fff;stroke-miterlimit:10"/><polygon points="127.2 279 116.5 273.8 117.3 272.3 128 277.5 127.2 279" style="fill:#fff;stroke:#fff;stroke-miterlimit:10"/><polygon points="738.1 576.3 727.4 571.1 728.2 569.5 738.9 574.8 738.1 576.3" style="fill:#fff;stroke:#fff;stroke-miterlimit:10"/><polygon points="122.3 289.6 111.5 284.8 112.2 283.2 123 288 122.3 289.6" style="fill:#fff;stroke:#fff;stroke-miterlimit:10"/><polygon points="743.2 565.4 732.4 560.6 733.1 559 743.9 563.8 743.2 565.4" style="fill:#fff;stroke:#fff;stroke-miterlimit:10"/><polygon points="117.8 300.3 106.8 295.9 107.4 294.3 118.4 298.7 117.8 300.3" style="fill:#fff;stroke:#fff;stroke-miterlimit:10"/><polygon points="748 554.3 736.9 549.9 737.6 548.3 748.6 552.7 748 554.3" style="fill:#fff;stroke:#fff;stroke-miterlimit:10"/><polygon points="109.9 322.2 98.6 318.5 99.1 316.9 110.4 320.6 109.9 322.2" style="fill:#fff;stroke:#fff;stroke-miterlimit:10"/><polygon points="756.3 531.7 745 528 745.5 526.4 756.8 530.1 756.3 531.7" style="fill:#fff;stroke:#fff;stroke-miterlimit:10"/><polygon points="106.5 333.3 95.1 330 95.5 328.4 107 331.7 106.5 333.3" style="fill:#fff;stroke:#fff;stroke-miterlimit:10"/><rect x="896.8" y="647.3" width="1.7" height="11.9" transform="translate(-120.7 1201) rotate(-74)" style="fill:#fff;stroke:#fff;stroke-miterlimit:10"/><rect x="240.4" y="471.8" width="1.7" height="11.9" transform="translate(-423.9 461) rotate(-76)" style="fill:#fff;stroke:#fff;stroke-miterlimit:10"/><polygon points="763 508.6 751.4 505.7 751.9 504.1 763.4 506.9 763 508.6" style="fill:#fff;stroke:#fff;stroke-miterlimit:10"/><rect x="237.7" y="483.4" width="1.7" height="11.9" transform="translate(-432.9 485.5) rotate(-78)" style="fill:#fff;stroke:#fff;stroke-miterlimit:10"/><polygon points="765.7 496.9 754.1 494.4 754.4 492.7 766.1 495.2 765.7 496.9" style="fill:#fff;stroke:#fff;stroke-miterlimit:10"/><rect x="233.6" y="506.7" width="1.7" height="11.9" transform="translate(-449 538.1) rotate(-82)" style="fill:#fff;stroke:#fff;stroke-miterlimit:10"/><rect x="906.6" y="601" width="1.7" height="11.9" transform="matrix(0.14, -0.99, 0.99, 0.14, 37.07, 1285.87)" style="fill:#fff;stroke:#fff;stroke-miterlimit:10"/><rect x="232.2" y="518.4" width="1.7" height="11.9" transform="translate(-456.1 565.8) rotate(-84)" style="fill:#fff;stroke:#fff;stroke-miterlimit:10"/><rect x="908.1" y="589.3" width="1.7" height="11.9" transform="translate(78.7 1301.5) rotate(-84)" style="fill:#fff;stroke:#fff;stroke-miterlimit:10"/><rect x="231.1" y="530.2" width="1.7" height="11.9" transform="matrix(0.07, -1, 1, 0.07, -462.32, 594.69)" style="fill:#fff;stroke:#fff;stroke-miterlimit:10"/><rect x="909.1" y="577.5" width="1.7" height="11.9" transform="translate(121.4 1315.2) rotate(-86)" style="fill:#fff;stroke:#fff;stroke-miterlimit:10"/><rect x="230.5" y="542" width="1.7" height="11.9" transform="translate(-467.7 624.5) rotate(-88)" style="fill:#fff;stroke:#fff;stroke-miterlimit:10"/><rect x="909.7" y="565.7" width="1.7" height="11.9" transform="translate(164.3 1326.3) rotate(-88)" style="fill:#fff;stroke:#fff;stroke-miterlimit:10"/><rect x="225.4" y="570.8" width="11.9" height="1.71" transform="matrix(1, -0.03, 0.03, 1, -163.09, -127.08)" style="fill:#fff;stroke:#fff;stroke-miterlimit:10"/><rect x="904.6" y="547.1" width="11.9" height="1.71" transform="translate(-161.8 -103.4) rotate(-2)" style="fill:#fff;stroke:#fff;stroke-miterlimit:10"/><rect x="226" y="582.6" width="11.9" height="1.71" transform="translate(-183.4 -117.9) rotate(-4)" style="fill:#fff;stroke:#fff;stroke-miterlimit:10"/><rect x="904" y="535.3" width="11.9" height="1.71" transform="translate(-178.4 -70.7) rotate(-4)" style="fill:#fff;stroke:#fff;stroke-miterlimit:10"/><rect x="227.1" y="594.4" width="11.9" height="1.71" transform="translate(-204.3 -107.8) rotate(-6)" style="fill:#fff;stroke:#fff;stroke-miterlimit:10"/><rect x="903" y="523.5" width="11.9" height="1.71" transform="translate(-193.4 -37) rotate(-6)" style="fill:#fff;stroke:#fff;stroke-miterlimit:10"/><rect x="228.5" y="606.1" width="11.9" height="1.71" transform="translate(-225.7 -96.9) rotate(-8)" style="fill:#fff;stroke:#fff;stroke-miterlimit:10"/><rect x="901.5" y="511.8" width="11.9" height="1.71" transform="translate(-205.9 -3.9) rotate(-8)" style="fill:#fff;stroke:#fff;stroke-miterlimit:10"/><polygon points="89.6 496.9 89.3 495.2 100.9 492.7 101.3 494.4 89.6 496.9" style="fill:#fff;stroke:#fff;stroke-miterlimit:10"/><polygon points="754.5 355.9 754.1 354.2 765.7 351.7 766.1 353.4 754.5 355.9" style="fill:#fff;stroke:#fff;stroke-miterlimit:10"/><rect x="235.3" y="641" width="11.9" height="1.71" transform="translate(-291.7 -57.9) rotate(-14)" style="fill:#fff;stroke:#fff;stroke-miterlimit:10"/><polygon points="751.9 344.5 751.4 342.9 763 340 763.4 341.7 751.9 344.5" style="fill:#fff;stroke:#fff;stroke-miterlimit:10"/><polygon points="95.5 520.2 95.1 518.6 106.5 515.3 107 516.9 95.5 520.2" style="fill:#fff;stroke:#fff;stroke-miterlimit:10"/><polygon points="748.9 333.3 748.4 331.7 759.8 328.4 760.3 330 748.9 333.3" style="fill:#fff;stroke:#fff;stroke-miterlimit:10"/><polygon points="99.1 531.7 98.6 530.1 109.9 526.4 110.4 528 99.1 531.7" style="fill:#fff;stroke:#fff;stroke-miterlimit:10"/><polygon points="745.5 322.2 745 320.6 756.3 316.9 756.8 318.5 745.5 322.2" style="fill:#fff;stroke:#fff;stroke-miterlimit:10"/><polygon points="107.4 554.3 106.8 552.7 117.8 548.3 118.4 549.9 107.4 554.3" style="fill:#fff;stroke:#fff;stroke-miterlimit:10"/><polygon points="737.6 300.3 736.9 298.7 748 294.3 748.6 295.9 737.6 300.3" style="fill:#fff;stroke:#fff;stroke-miterlimit:10"/><polygon points="112.2 565.4 111.5 563.8 122.3 559 123 560.6 112.2 565.4" style="fill:#fff;stroke:#fff;stroke-miterlimit:10"/><polygon points="733.1 289.6 732.4 288 743.2 283.2 743.9 284.8 733.1 289.6" style="fill:#fff;stroke:#fff;stroke-miterlimit:10"/><polygon points="117.3 576.3 116.5 574.8 127.2 569.5 128 571.1 117.3 576.3" style="fill:#fff;stroke:#fff;stroke-miterlimit:10"/><polygon points="728.2 279 727.4 277.5 738.1 272.3 738.9 273.8 728.2 279" style="fill:#fff;stroke:#fff;stroke-miterlimit:10"/><polygon points="122.8 587 122 585.5 132.5 579.9 133.3 581.4 122.8 587" style="fill:#fff;stroke:#fff;stroke-miterlimit:10"/><polygon points="722.9 268.7 722.1 267.2 732.6 261.6 733.4 263.1 722.9 268.7" style="fill:#fff;stroke:#fff;stroke-miterlimit:10"/><polygon points="134.9 607.8 134 606.4 144.1 600.1 145 601.5 134.9 607.8" style="fill:#fff;stroke:#fff;stroke-miterlimit:10"/><polygon points="711.3 248.5 710.4 247.1 720.5 240.8 721.4 242.2 711.3 248.5" style="fill:#fff;stroke:#fff;stroke-miterlimit:10"/><polygon points="141.5 617.9 140.5 616.5 150.4 609.9 151.4 611.3 141.5 617.9" style="fill:#fff;stroke:#fff;stroke-miterlimit:10"/><polygon points="705 238.7 704 237.3 713.9 230.7 714.8 232.1 705 238.7" style="fill:#fff;stroke:#fff;stroke-miterlimit:10"/><polygon points="148.5 627.8 147.4 626.4 157.1 619.4 158.1 620.8 148.5 627.8" style="fill:#fff;stroke:#fff;stroke-miterlimit:10"/><polygon points="698.3 229.2 697.3 227.8 706.9 220.8 707.9 222.2 698.3 229.2" style="fill:#fff;stroke:#fff;stroke-miterlimit:10"/><polygon points="155.7 637.3 154.7 636 164.1 628.7 165.1 630 155.7 637.3" style="fill:#fff;stroke:#fff;stroke-miterlimit:10"/><polygon points="691.3 219.9 690.3 218.5 699.6 211.2 700.7 212.6 691.3 219.9" style="fill:#fff;stroke:#fff;stroke-miterlimit:10"/><polygon points="171.3 655.8 170.2 654.5 179 646.5 180.1 647.8 171.3 655.8" style="fill:#fff;stroke:#fff;stroke-miterlimit:10"/><polygon points="676.4 202 675.2 200.8 684.1 192.8 685.2 194.1 676.4 202" style="fill:#fff;stroke:#fff;stroke-miterlimit:10"/><polygon points="179.6 664.5 178.4 663.3 186.9 655.1 188.1 656.3 179.6 664.5" style="fill:#fff;stroke:#fff;stroke-miterlimit:10"/><polygon points="668.5 193.5 667.3 192.3 675.8 184 677 185.3 668.5 193.5" style="fill:#fff;stroke:#fff;stroke-miterlimit:10"/><polygon points="188.1 673 186.9 671.8 195.1 663.3 196.4 664.5 188.1 673" style="fill:#fff;stroke:#fff;stroke-miterlimit:10"/><polygon points="660.2 185.3 659 184.1 667.3 175.6 668.5 176.7 660.2 185.3" style="fill:#fff;stroke:#fff;stroke-miterlimit:10"/><polygon points="197 681.2 195.7 680.1 203.6 671.3 204.9 672.4 197 681.2" style="fill:#fff;stroke:#fff;stroke-miterlimit:10"/><polygon points="651.7 177.3 650.5 176.2 658.4 167.4 659.7 168.5 651.7 177.3" style="fill:#fff;stroke:#fff;stroke-miterlimit:10"/><polygon points="215.5 696.7 214.1 695.6 221.5 686.2 222.8 687.3 215.5 696.7" style="fill:#fff;stroke:#fff;stroke-miterlimit:10"/><polygon points="633.9 162.3 632.6 161.3 639.9 151.9 641.2 153 633.9 162.3" style="fill:#fff;stroke:#fff;stroke-miterlimit:10"/><polygon points="225.1 703.9 223.8 702.9 230.8 693.3 232.1 694.3 225.1 703.9" style="fill:#fff;stroke:#fff;stroke-miterlimit:10"/><polygon points="624.6 155.3 623.2 154.3 630.2 144.7 631.6 145.7 624.6 155.3" style="fill:#fff;stroke:#fff;stroke-miterlimit:10"/><polygon points="235 710.8 233.6 709.8 240.3 700 241.7 700.9 235 710.8" style="fill:#fff;stroke:#fff;stroke-miterlimit:10"/><polygon points="615.1 148.6 613.7 147.7 620.3 137.8 621.8 138.8 615.1 148.6" style="fill:#fff;stroke:#fff;stroke-miterlimit:10"/><polygon points="245.2 717.3 243.7 716.4 250 706.3 251.5 707.2 245.2 717.3" style="fill:#fff;stroke:#fff;stroke-miterlimit:10"/><polygon points="605.3 142.3 603.9 141.4 610.2 131.3 611.6 132.2 605.3 142.3" style="fill:#fff;stroke:#fff;stroke-miterlimit:10"/><polygon points="266.1 729.3 264.6 728.5 270.2 718 271.7 718.8 266.1 729.3" style="fill:#fff;stroke:#fff;stroke-miterlimit:10"/><polygon points="585.2 130.6 583.7 129.8 589.3 119.3 590.8 120.1 585.2 130.6" style="fill:#fff;stroke:#fff;stroke-miterlimit:10"/><polygon points="276.9 734.7 275.3 734 280.6 723.3 282.1 724 276.9 734.7" style="fill:#fff;stroke:#fff;stroke-miterlimit:10"/><polygon points="574.8 125.3 573.3 124.5 578.5 113.9 580 114.6 574.8 125.3" style="fill:#fff;stroke:#fff;stroke-miterlimit:10"/><polygon points="287.8 739.8 286.3 739.1 291.1 728.2 292.7 728.9 287.8 739.8" style="fill:#fff;stroke:#fff;stroke-miterlimit:10"/><polygon points="564.3 120.3 562.7 119.6 567.5 108.8 569.1 109.5 564.3 120.3" style="fill:#fff;stroke:#fff;stroke-miterlimit:10"/><polygon points="299 744.5 297.4 743.8 301.8 732.8 303.4 733.5 299 744.5" style="fill:#fff;stroke:#fff;stroke-miterlimit:10"/><polygon points="553.6 115.8 552 115.1 556.4 104.1 558 104.8 553.6 115.8" style="fill:#fff;stroke:#fff;stroke-miterlimit:10"/><polygon points="321.7 752.6 320 752.1 323.7 740.8 325.3 741.3 321.7 752.6" style="fill:#fff;stroke:#fff;stroke-miterlimit:10"/><polygon points="531.7 107.8 530 107.2 533.7 95.9 535.4 96.5 531.7 107.8" style="fill:#fff;stroke:#fff;stroke-miterlimit:10"/><polygon points="333.2 756.1 331.6 755.7 334.8 744.2 336.5 744.7 333.2 756.1" style="fill:#fff;stroke:#fff;stroke-miterlimit:10"/><polygon points="520.5 104.3 518.9 103.9 522.2 92.5 523.8 92.9 520.5 104.3" style="fill:#fff;stroke:#fff;stroke-miterlimit:10"/><polygon points="344.9 759.2 343.2 758.8 346.1 747.3 347.7 747.7 344.9 759.2" style="fill:#fff;stroke:#fff;stroke-miterlimit:10"/><polygon points="509.3 101.3 507.6 100.9 510.5 89.4 512.2 89.8 509.3 101.3" style="fill:#fff;stroke:#fff;stroke-miterlimit:10"/><rect x="494.4" y="890.6" width="11.9" height="1.71" transform="translate(-618.9 1060.2) rotate(-78)" style="fill:#fff;stroke:#fff;stroke-miterlimit:10"/><polygon points="497.9 98.7 496.3 98.3 498.7 86.7 500.4 87 497.9 98.7" style="fill:#fff;stroke:#fff;stroke-miterlimit:10"/><rect x="517.7" y="894.7" width="11.9" height="1.71" transform="translate(-579.2 1154.2) rotate(-82)" style="fill:#fff;stroke:#fff;stroke-miterlimit:10"/><rect x="612.3" y="223.2" width="11.9" height="1.71" transform="translate(167.2 669.7) rotate(-82)" style="fill:#fff;stroke:#fff;stroke-miterlimit:10"/><rect x="529.5" y="896.1" width="11.9" height="1.71" transform="translate(-555.7 1200.6) rotate(-84)" style="fill:#fff;stroke:#fff;stroke-miterlimit:10"/><rect x="600.6" y="221.8" width="11.9" height="1.71" transform="translate(178.6 667.1) rotate(-84)" style="fill:#fff;stroke:#fff;stroke-miterlimit:10"/><rect x="541.3" y="897.1" width="11.9" height="1.71" transform="translate(-529.8 1246.1) rotate(-86)" style="fill:#fff;stroke:#fff;stroke-miterlimit:10"/><rect x="588.7" y="220.7" width="11.9" height="1.71" transform="translate(189 663.9) rotate(-86)" style="fill:#fff;stroke:#fff;stroke-miterlimit:10"/><rect x="553.2" y="897.8" width="11.9" height="1.71" transform="translate(-501.7 1290.7) rotate(-88)" style="fill:#fff;stroke:#fff;stroke-miterlimit:10"/><rect x="576.9" y="220.1" width="11.9" height="1.71" transform="matrix(0.04, -1, 1, 0.04, 198.16, 660.14)" style="fill:#fff;stroke:#fff;stroke-miterlimit:10"/><path d="M571,932.4A372.4,372.4,0,1,1,915.1,414.8a372,372,0,0,1-80,408.5A373.5,373.5,0,0,1,571,932.4Zm0-741.2a368.7,368.7,0,1,0,143.8,29A366.2,366.2,0,0,0,571,191.2Z" transform="translate(-143.3 -135.5)" style="fill:#fff;stroke:#fff;stroke-miterlimit:10"/><path d="M571.1,787.1h-6.6a2.8,2.8,0,0,1-2.7-2.8,2.8,2.8,0,0,1,2.8-2.7h6.5a2.7,2.7,0,1,1,0,5.4Zm13.1-.3a2.8,2.8,0,0,1-2.7-2.6,2.7,2.7,0,0,1,2.5-2.9l6.5-.5a2.9,2.9,0,0,1,3,2.5,2.8,2.8,0,0,1-2.5,3l-6.6.5Zm-32.7-.5h-.2l-6.6-.6a2.8,2.8,0,0,1-2.4-3.1,2.7,2.7,0,0,1,3-2.4l6.4.7a2.6,2.6,0,0,1,2.5,2.9A2.7,2.7,0,0,1,551.5,786.3Zm52.2-1.5a2.8,2.8,0,0,1-2.7-2.3,2.7,2.7,0,0,1,2.3-3.1l6.4-1.1a2.9,2.9,0,0,1,3.2,2.2,2.7,2.7,0,0,1-2.2,3.2l-6.6,1.1Zm-71.7-1h-.4l-6.6-1.3a2.7,2.7,0,1,1,1.1-5.3l6.4,1.2a2.6,2.6,0,0,1,2.2,3.1A2.7,2.7,0,0,1,532,783.8Zm91-2.7a2.7,2.7,0,0,1-.6-5.4l6.3-1.6a2.8,2.8,0,0,1,3.3,2,2.7,2.7,0,0,1-1.9,3.3l-6.4,1.6Zm-110.2-1.5h-.7l-6.3-1.8a2.7,2.7,0,1,1,1.5-5.2l6.2,1.7a2.8,2.8,0,0,1,2,3.4A2.7,2.7,0,0,1,512.8,779.6Zm129.1-3.8a2.9,2.9,0,0,1-2.6-1.9,2.8,2.8,0,0,1,1.8-3.5l6.1-2.1a2.7,2.7,0,0,1,3.5,1.7,2.8,2.8,0,0,1-1.7,3.5l-6.2,2.1Zm-147.8-2.1h-.9l-6.2-2.4a2.8,2.8,0,0,1-1.6-3.5,2.9,2.9,0,0,1,3.6-1.6l6,2.3a2.7,2.7,0,0,1,1.7,3.5A2.8,2.8,0,0,1,494.1,773.7Zm166.1-4.9a2.8,2.8,0,0,1-2.5-1.6,2.8,2.8,0,0,1,1.5-3.6l5.8-2.7a2.8,2.8,0,0,1,2.4,5l-6.1,2.7Zm-184.3-2.6-1.1-.2-6-2.9a2.7,2.7,0,0,1-1.2-3.7,2.8,2.8,0,0,1,3.7-1.2l5.8,2.8a2.6,2.6,0,0,1,1.3,3.6A2.7,2.7,0,0,1,475.9,766.2Zm202-5.9a2.8,2.8,0,0,1-2.4-1.5,2.6,2.6,0,0,1,1.1-3.7c1.9-1,3.8-2,5.6-3.1a2.7,2.7,0,0,1,3.7,1,2.6,2.6,0,0,1-1,3.7l-5.7,3.2A2.2,2.2,0,0,1,677.9,760.3Zm-219.4-3.1a3.3,3.3,0,0,1-1.4-.4l-5.7-3.4a2.8,2.8,0,0,1,2.9-4.7c1.8,1.2,3.7,2.3,5.6,3.4a2.7,2.7,0,0,1,1,3.7A2.9,2.9,0,0,1,458.5,757.2Zm236.2-7a2.7,2.7,0,0,1-2.3-1.2,2.7,2.7,0,0,1,.8-3.8l5.3-3.6a2.8,2.8,0,0,1,3.9.6,2.9,2.9,0,0,1-.7,3.9l-5.5,3.7A2.8,2.8,0,0,1,694.7,750.2Zm-252.8-3.6a3.3,3.3,0,0,1-1.6-.5c-1.8-1.2-3.6-2.6-5.3-3.9a2.7,2.7,0,1,1,3.2-4.3l5.3,3.7a2.8,2.8,0,0,1,.7,3.8A2.8,2.8,0,0,1,441.9,746.6Zm268.7-7.9a2.5,2.5,0,0,1-2.1-1,2.6,2.6,0,0,1,.4-3.8l5-4.1a2.7,2.7,0,1,1,3.5,4.2l-5.1,4.2A2.6,2.6,0,0,1,710.6,738.7Zm-284.3-4a2.3,2.3,0,0,1-1.7-.7l-5.1-4.3a2.8,2.8,0,1,1,3.7-4.1c1.6,1.4,3.2,2.9,4.9,4.2a2.8,2.8,0,0,1-1.8,4.9Zm299.2-8.8a2.8,2.8,0,0,1-2-.8,2.7,2.7,0,0,1,.1-3.9l4.6-4.5a2.9,2.9,0,0,1,3.9,0,2.7,2.7,0,0,1,0,3.9l-4.8,4.6A2.6,2.6,0,0,1,725.5,725.9Zm-313.7-4.5a2.4,2.4,0,0,1-1.9-.8c-1.6-1.5-3.1-3.1-4.6-4.7a2.7,2.7,0,0,1,.1-3.9,2.8,2.8,0,0,1,3.9.1c1.4,1.6,3,3.2,4.5,4.7a2.8,2.8,0,0,1,0,3.8A2.7,2.7,0,0,1,411.8,721.4Zm327.3-9.5a2.6,2.6,0,0,1-1.8-.7,2.8,2.8,0,0,1-.2-3.9l4.2-4.8a2.7,2.7,0,0,1,3.9-.4,2.8,2.8,0,0,1,.3,3.9l-4.3,5A2.9,2.9,0,0,1,739.1,711.9ZM398.6,707a2.5,2.5,0,0,1-2.1-1c-1.4-1.6-2.9-3.4-4.2-5.1a2.6,2.6,0,0,1,.4-3.8,2.7,2.7,0,0,1,3.9.4c1.3,1.7,2.7,3.4,4.1,5a2.8,2.8,0,0,1-.4,3.9A2.7,2.7,0,0,1,398.6,707Zm353-10.3a3.4,3.4,0,0,1-1.7-.5,2.8,2.8,0,0,1-.5-3.9l3.8-5.2a2.8,2.8,0,0,1,3.8-.7,2.7,2.7,0,0,1,.6,3.8l-3.8,5.4A2.9,2.9,0,0,1,751.6,696.7Zm-365-5.2a2.5,2.5,0,0,1-2.2-1.2l-3.8-5.4a2.7,2.7,0,0,1,.8-3.8,2.7,2.7,0,0,1,3.8.8l3.6,5.3a2.7,2.7,0,0,1-.6,3.8A3.3,3.3,0,0,1,386.6,691.5Zm376-11a2.3,2.3,0,0,1-1.4-.4,2.8,2.8,0,0,1-.9-3.8l3.3-5.5a2.8,2.8,0,0,1,3.8-1,2.7,2.7,0,0,1,1,3.7l-3.5,5.7A2.8,2.8,0,0,1,762.6,680.5ZM376,675a2.7,2.7,0,0,1-2.3-1.4l-3.3-5.7a2.7,2.7,0,0,1,1.1-3.7,2.7,2.7,0,0,1,3.7,1.1l3.2,5.6a2.7,2.7,0,0,1-1,3.7A2.3,2.3,0,0,1,376,675Zm396.2-11.6a2.7,2.7,0,0,1-1.2-.3,2.7,2.7,0,0,1-1.2-3.7l2.8-5.8a2.6,2.6,0,0,1,3.6-1.3,2.7,2.7,0,0,1,1.4,3.6c-1,2-2,4-2.9,6A2.9,2.9,0,0,1,772.2,663.4ZM367,657.7a2.6,2.6,0,0,1-2.5-1.6q-1.5-3-2.7-6a2.7,2.7,0,1,1,5-2.2c.8,2,1.7,3.9,2.6,5.9a2.6,2.6,0,0,1-1.3,3.6Zm413.3-12.2-1-.2a2.9,2.9,0,0,1-1.6-3.6c.8-2,1.6-4,2.3-6a2.8,2.8,0,0,1,3.5-1.7,2.8,2.8,0,0,1,1.7,3.5l-2.4,6.2A2.7,2.7,0,0,1,780.3,645.5Zm-420.9-5.9a2.7,2.7,0,0,1-2.5-1.8c-.8-2.1-1.5-4.2-2.2-6.2a2.8,2.8,0,0,1,1.7-3.5,2.8,2.8,0,0,1,3.5,1.7c.6,2.1,1.4,4.1,2.1,6.1a2.7,2.7,0,0,1-1.6,3.5A1.8,1.8,0,0,1,359.4,639.6Zm427.3-12.7h-.8a2.7,2.7,0,0,1-1.8-3.4l1.8-6.2a2.7,2.7,0,0,1,3.3-1.9,2.8,2.8,0,0,1,2,3.3l-1.8,6.4A2.8,2.8,0,0,1,786.7,626.9Zm-433.2-6a2.7,2.7,0,0,1-2.6-2c-.6-2.1-1.2-4.3-1.7-6.4a2.8,2.8,0,0,1,2.1-3.3,2.9,2.9,0,0,1,3.3,2c.5,2.1,1,4.2,1.6,6.3a2.8,2.8,0,0,1-2,3.3Zm438-13H791a2.8,2.8,0,0,1-2.2-3.2c.5-2.1.9-4.3,1.2-6.4a2.7,2.7,0,1,1,5.4,1c-.3,2.1-.8,4.3-1.2,6.5A2.7,2.7,0,0,1,791.5,607.9Zm-442.3-6.1a2.6,2.6,0,0,1-2.6-2.3c-.4-2.1-.8-4.3-1.1-6.5a2.7,2.7,0,1,1,5.4-.8c.3,2.2.7,4.3,1,6.4a2.7,2.7,0,0,1-2.2,3.2Zm445.4-13.2h-.3a2.7,2.7,0,0,1-2.4-3c.2-2.2.5-4.3.6-6.5a2.8,2.8,0,0,1,5.5.5c-.2,2.2-.4,4.4-.7,6.6A2.6,2.6,0,0,1,794.6,588.6Zm-447.9-6.2a2.7,2.7,0,0,1-2.7-2.5c-.2-2.2-.4-4.4-.5-6.6a2.7,2.7,0,0,1,2.6-2.9,2.6,2.6,0,0,1,2.8,2.6c.2,2.1.3,4.3.5,6.4a2.9,2.9,0,0,1-2.5,3ZM796,569.1h-.1a2.7,2.7,0,0,1-2.6-2.9c.1-2.1.1-4.3.1-6.4v-.6a2.7,2.7,0,0,1,2.7-2.7,2.8,2.8,0,0,1,2.8,2.7v.6c0,2.2-.1,4.4-.1,6.6A2.8,2.8,0,0,1,796,569.1Zm-450.2-6.3a2.7,2.7,0,0,1-2.7-2.7v-.3c0-2.1,0-4.2.1-6.3a2.8,2.8,0,0,1,2.8-2.7,2.7,2.7,0,0,1,2.6,2.8v6.5A2.8,2.8,0,0,1,345.8,562.8Zm449.9-13.9a2.7,2.7,0,0,1-2.7-2.6c-.1-2.1-.3-4.3-.5-6.4a2.8,2.8,0,1,1,5.5-.5c.1,2.2.3,4.4.4,6.6a2.7,2.7,0,0,1-2.5,2.9Zm-449.1-5.7h-.2a2.7,2.7,0,0,1-2.5-2.9c.2-2.2.4-4.4.7-6.6a2.6,2.6,0,0,1,3-2.4,2.7,2.7,0,0,1,2.4,3l-.6,6.4A2.7,2.7,0,0,1,346.6,543.2Zm447.1-13.8a2.7,2.7,0,0,1-2.7-2.3c-.3-2.1-.7-4.3-1.1-6.4a2.7,2.7,0,0,1,2.3-3.1,2.6,2.6,0,0,1,3.1,2.2c.4,2.1.8,4.3,1.1,6.5a2.7,2.7,0,0,1-2.3,3.1Zm-444.5-5.6h-.5a2.7,2.7,0,0,1-2.2-3.2c.3-2.1.7-4.3,1.2-6.5a2.7,2.7,0,0,1,3.2-2.1,2.7,2.7,0,0,1,2.2,3.2q-.7,3.1-1.2,6.3A2.8,2.8,0,0,1,349.2,523.8ZM790,510.2a2.8,2.8,0,0,1-2.7-2.1c-.5-2.1-1-4.2-1.6-6.3a2.7,2.7,0,0,1,5.3-1.4c.6,2.1,1.1,4.3,1.6,6.4a2.6,2.6,0,0,1-2,3.3Zm-436.6-5.5h-.7a2.8,2.8,0,0,1-2-3.4l1.8-6.3a2.8,2.8,0,0,1,3.4-1.9,2.8,2.8,0,0,1,1.9,3.4c-.7,2.1-1.2,4.2-1.8,6.2A2.7,2.7,0,0,1,353.4,504.7Zm431.2-13.3a2.8,2.8,0,0,1-2.6-1.9c-.7-2-1.4-4.1-2.2-6.1a2.8,2.8,0,0,1,1.7-3.5,2.7,2.7,0,0,1,3.5,1.6l2.2,6.3a2.7,2.7,0,0,1-1.7,3.4ZM359.2,486l-.9-.2a2.7,2.7,0,0,1-1.6-3.5c.7-2,1.5-4.1,2.3-6.2a2.8,2.8,0,0,1,3.6-1.5,2.6,2.6,0,0,1,1.5,3.5c-.8,2-1.6,4.1-2.3,6.1A2.7,2.7,0,0,1,359.2,486Zm418.4-12.9a2.6,2.6,0,0,1-2.5-1.7l-2.7-5.8a2.8,2.8,0,0,1,1.3-3.7,2.9,2.9,0,0,1,3.7,1.4l2.7,6a2.8,2.8,0,0,1-1.4,3.6Zm-410.9-5.3a2.3,2.3,0,0,1-1.1-.2,2.6,2.6,0,0,1-1.3-3.6c.9-2.1,1.9-4.1,2.9-6a2.6,2.6,0,0,1,3.6-1.2,2.7,2.7,0,0,1,1.3,3.6c-1,1.9-2,3.9-2.9,5.9A2.6,2.6,0,0,1,366.7,467.8ZM769,455.5a2.7,2.7,0,0,1-2.4-1.4c-1.1-1.9-2.1-3.8-3.2-5.6a2.8,2.8,0,0,1,1-3.8,2.7,2.7,0,0,1,3.7,1l3.3,5.8a2.8,2.8,0,0,1-1.1,3.7A3.1,3.1,0,0,1,769,455.5Zm-393.2-5.1a3.1,3.1,0,0,1-1.3-.3,2.8,2.8,0,0,1-1.1-3.8l3.5-5.7a2.7,2.7,0,0,1,3.7-.8,2.6,2.6,0,0,1,.9,3.7l-3.3,5.6A2.8,2.8,0,0,1,375.8,450.4Zm383.1-11.7a2.7,2.7,0,0,1-2.3-1.2c-1.2-1.8-2.4-3.6-3.7-5.3a2.8,2.8,0,0,1,.7-3.8,2.7,2.7,0,0,1,3.8.6l3.8,5.5a2.7,2.7,0,0,1-2.3,4.2Zm-372.5-4.8a3,3,0,0,1-1.6-.5,2.8,2.8,0,0,1-.7-3.8l3.9-5.4a2.8,2.8,0,0,1,3.9-.5,2.7,2.7,0,0,1,.5,3.8l-3.8,5.2A2.6,2.6,0,0,1,386.4,433.9Zm360.9-11a2.8,2.8,0,0,1-2.1-1c-1.3-1.7-2.7-3.4-4.1-5a2.7,2.7,0,1,1,4.2-3.5c1.4,1.6,2.8,3.4,4.2,5.1a2.8,2.8,0,0,1-2.2,4.4Zm-349-4.6a2.7,2.7,0,0,1-1.7-.6,2.8,2.8,0,0,1-.4-3.9c1.5-1.6,2.9-3.3,4.4-5a2.7,2.7,0,0,1,3.8-.2,2.7,2.7,0,0,1,.3,3.9c-1.5,1.6-2.9,3.2-4.3,4.9A2.7,2.7,0,0,1,398.3,418.3Zm336.2-10.2a2.8,2.8,0,0,1-2-.8l-4.5-4.7a2.7,2.7,0,0,1,3.8-3.8c1.6,1.5,3.1,3.1,4.7,4.7a2.7,2.7,0,0,1-2,4.6Zm-322.9-4.2a2.8,2.8,0,0,1-1.9-4.7l4.7-4.6a2.8,2.8,0,0,1,3.8,4c-1.6,1.4-3.2,3-4.7,4.5A2.7,2.7,0,0,1,411.6,403.9Zm308.8-9.4a3.4,3.4,0,0,1-1.9-.7c-1.6-1.4-3.2-2.9-4.9-4.2a2.8,2.8,0,1,1,3.6-4.2l5,4.3a2.8,2.8,0,0,1,.2,3.9A2.7,2.7,0,0,1,720.4,394.5Zm-294.3-3.9a2.5,2.5,0,0,1-2.1-1,2.6,2.6,0,0,1,.3-3.8l5.1-4.2a2.8,2.8,0,0,1,3.9.5,2.7,2.7,0,0,1-.5,3.8l-5,4.1A2.7,2.7,0,0,1,426.1,390.6Zm279-8.5a3.3,3.3,0,0,1-1.6-.5l-5.3-3.8a2.7,2.7,0,0,1-.6-3.8,2.8,2.8,0,0,1,3.8-.7l5.4,3.9a2.7,2.7,0,0,1,.5,3.8A2.7,2.7,0,0,1,705.1,382.1Zm-263.5-3.4a2.5,2.5,0,0,1-2.2-1.2,2.7,2.7,0,0,1,.6-3.8l5.5-3.7a2.7,2.7,0,0,1,3.8.8,2.6,2.6,0,0,1-.8,3.7c-1.8,1.2-3.6,2.4-5.3,3.7A3.3,3.3,0,0,1,441.6,378.7Zm247.2-7.6a2.7,2.7,0,0,1-1.4-.4l-5.6-3.3a2.7,2.7,0,1,1,2.8-4.7l5.7,3.4a2.7,2.7,0,0,1-1.5,5Zm-230.7-3a2.8,2.8,0,0,1-1.4-5.1l5.8-3.2a2.8,2.8,0,0,1,3.7,1.1,2.7,2.7,0,0,1-1.1,3.7l-5.6,3.1A2.3,2.3,0,0,1,458.1,368.1Zm213.6-6.5a3.1,3.1,0,0,1-1.3-.3l-5.8-2.8a2.8,2.8,0,0,1,2.3-5l6,2.9a2.8,2.8,0,0,1-1.2,5.2ZM475.5,359a2.7,2.7,0,0,1-2.5-1.5,2.9,2.9,0,0,1,1.3-3.7l6.1-2.7a2.8,2.8,0,0,1,3.6,1.4,2.8,2.8,0,0,1-1.5,3.6l-5.8,2.7A2.5,2.5,0,0,1,475.5,359Zm178.2-5.4-1-.2-6.1-2.3a2.7,2.7,0,0,1-1.6-3.5,2.8,2.8,0,0,1,3.5-1.7l6.2,2.4a2.7,2.7,0,0,1,1.6,3.5A2.9,2.9,0,0,1,653.7,353.6Zm-160.1-2.1a2.7,2.7,0,0,1-1-5.3c2.1-.7,4.2-1.5,6.3-2.1a2.7,2.7,0,1,1,1.7,5.1l-6.1,2.2Zm141.5-4.3-.7-.2-6.3-1.7a2.7,2.7,0,0,1,1.4-5.3l6.4,1.8a2.8,2.8,0,0,1,1.9,3.4A2.9,2.9,0,0,1,635.1,347.2Zm-122.8-1.6a2.7,2.7,0,0,1-2.6-2,2.7,2.7,0,0,1,1.9-3.4l6.4-1.6a2.8,2.8,0,0,1,3.3,2,2.6,2.6,0,0,1-2,3.3l-6.3,1.6Zm103.8-3.2h-.6q-3.2-.7-6.3-1.2a2.9,2.9,0,0,1-2.3-3.2,2.7,2.7,0,0,1,3.2-2.2l6.5,1.2a2.7,2.7,0,0,1-.5,5.4Zm-84.6-1a2.8,2.8,0,0,1-2.7-2.3,2.7,2.7,0,0,1,2.2-3.2l6.5-1a2.7,2.7,0,0,1,3.1,2.3,2.7,2.7,0,0,1-2.3,3.1l-6.4,1Zm65.2-2h-.3l-6.5-.6a2.7,2.7,0,1,1,.5-5.4c2.2.1,4.4.4,6.6.6a2.7,2.7,0,0,1,2.4,3A2.8,2.8,0,0,1,596.7,339.4Zm-45.8-.6a2.7,2.7,0,0,1-2.7-2.5,2.9,2.9,0,0,1,2.5-3l6.6-.5a2.8,2.8,0,0,1,2.9,2.6,2.8,2.8,0,0,1-2.6,2.9l-6.4.5Zm26.2-.8h-6.5a2.7,2.7,0,0,1-2.8-2.7,2.8,2.8,0,0,1,2.7-2.8h6.7a2.8,2.8,0,0,1-.1,5.5Z" transform="translate(-143.3 -135.5)" style="fill:#fff;stroke:#fff;stroke-miterlimit:10"/><path d="M975,558.1H960.5v13.4h16.2v4.1h-21V538.3h20.2v4H960.5v11.8H975Z" transform="translate(-143.3 -135.5)" style="fill:#fff;stroke:#fff;stroke-miterlimit:10"/><path d="M977.7,576.6h-23V537.3h22.2v6H961.5v9.8H976v6H961.5v11.4h16.2Zm-21-2h19v-2.1H959.5V557.1H974v-2H959.5V541.3h15.4v-2H956.7Z" transform="translate(-143.3 -135.5)" style="fill:#fff;stroke:#fff;stroke-miterlimit:10"/><path d="M558.3,174.3V137h5.3l11.9,18.9a88.4,88.4,0,0,1,6.7,12.1h.2a147.1,147.1,0,0,1-.6-15.3V137h4.5v37.3h-4.8l-11.9-18.9a121.8,121.8,0,0,1-7-12.5h-.2c.3,4.7.4,9.2.4,15.3v16Z" transform="translate(-143.3 -135.5)" style="fill:#fff;stroke:#fff;stroke-miterlimit:10"/><path d="M587.3,175.3h-6.4l-12.1-19.4a100.3,100.3,0,0,1-5.1-8.7c.1,3.3.1,6.8.1,11.1v17h-6.5V136h6.8l12.3,19.3c1.7,2.8,3.3,5.4,4.6,8-.2-3.5-.2-6.9-.2-10.7V136h6.5Zm-5.3-2h3.3V138h-2.5v14.6c0,5.4.1,10.1.5,15.2v.7l-1.6.8-.5-.9a91.4,91.4,0,0,0-6.6-12L563,138h-3.7v35.3h2.5v-15c0-6.2-.1-10.6-.4-15.3v-.7l1.7-.6.4.8a105.3,105.3,0,0,0,6.9,12.3Z" transform="translate(-143.3 -135.5)" style="fill:#fff;stroke:#fff;stroke-miterlimit:10"/><path d="M562.2,978.6a17.4,17.4,0,0,0,8.6,2.4c5,0,7.9-2.6,7.9-6.3s-2-5.5-7.1-7.5-9.8-5.3-9.8-10.5,4.8-10.1,12-10.1a16.5,16.5,0,0,1,8.3,1.8l-1.3,3.9a14.7,14.7,0,0,0-7.1-1.8c-5.1,0-7.1,3.1-7.1,5.6s2.3,5.2,7.5,7.2,9.5,5.5,9.5,11S579.3,985,570.5,985c-3.6,0-7.5-1-9.5-2.4Z" transform="translate(-143.3 -135.5)" style="fill:#fff;stroke:#fff;stroke-miterlimit:10"/><path d="M570.5,986c-3.7,0-7.8-1-10.1-2.5l-.6-.5,1.8-5.9,1.1.6a15.8,15.8,0,0,0,8.1,2.3c4.3,0,6.9-2,6.9-5.3s-1.1-4.5-6.4-6.5c-7.1-2.5-10.5-6.3-10.5-11.5s5.3-11.1,13-11.1a18.6,18.6,0,0,1,8.8,1.9l.7.4-2,5.9-1-.6a13.4,13.4,0,0,0-6.6-1.7c-4.5,0-6.1,2.5-6.1,4.6s1.7,4.3,6.8,6.3c7.2,2.7,10.2,6.3,10.2,11.9S580.9,986,570.5,986Zm-8.3-3.8a19.2,19.2,0,0,0,8.3,1.8c7.4,0,12.1-3.8,12.1-9.7s-2.5-7.6-8.9-10-8.1-4-8.1-8.2,2.5-6.6,8.1-6.6a16.1,16.1,0,0,1,6.5,1.4l.7-2a17.4,17.4,0,0,0-7.1-1.3c-6.5,0-11,3.7-11,9.1s2.9,7.4,9.2,9.6c4.6,1.8,7.7,3.9,7.7,8.4s-3.5,7.3-8.9,7.3a18.5,18.5,0,0,1-8-1.9Z" transform="translate(-143.3 -135.5)" style="fill:#fff;stroke:#fff;stroke-miterlimit:10"/><path d="M150.3,548.8l3.5,13.6c.8,3,1.5,5.7,2,8.5h.2c.6-2.7,1.5-5.6,2.4-8.5l4.4-13.6h4.1l4.1,13.4c1,3.2,1.8,6,2.4,8.7h.2a70.7,70.7,0,0,1,2-8.7l3.9-13.4h4.8l-8.7,26.8h-4.4l-4.1-12.8a87.9,87.9,0,0,1-2.4-8.8h-.1c-.7,3.2-1.5,6-2.4,8.8l-4.4,12.8h-4.4l-8.1-26.8Z" transform="translate(-143.3 -135.5)" style="fill:#fff;stroke:#fff;stroke-miterlimit:10"/><path d="M176.4,576.6h-5.9l-4.4-13.5c-.5-1.8-1-3.4-1.4-5.1-.5,1.9-1.1,3.6-1.6,5.1l-4.6,13.5h-5.8L144,547.8h7.1l3.7,14.3c.4,1.7.8,3.2,1.2,4.8.5-1.6.9-3.2,1.4-4.7l4.6-14.4h5.6l4.4,14.1c.5,1.7,1,3.3,1.4,4.8.4-1.6.8-3.2,1.3-4.7l4-14.2h7Zm-4.5-2h3l8-24.8h-2.7l-3.6,12.7a59.8,59.8,0,0,0-2,8.6l-.2.8h-1.8l-.2-.8c-.6-2.6-1.3-5.4-2.3-8.6l-4-12.7h-2.6l-4.2,12.9c-.8,2.8-1.7,5.8-2.3,8.4l-.2.8H155v-.8c-.5-2.7-1.3-5.5-2-8.4l-3.4-12.9h-2.9l7.5,24.8h3l4.1-12.1a71.5,71.5,0,0,0,2.4-8.7l.2-.8h1.7l.2.8c.6,3,1.4,5.7,2.3,8.7Z" transform="translate(-143.3 -135.5)" style="fill:#fff;stroke:#fff;stroke-miterlimit:10"/><path d="M864.7,249.7l14.7-14.6,2.4,2.4-1.9,12.9a49.3,49.3,0,0,1-1.7,7.9h.1a80.9,80.9,0,0,1,5.8-6.2l6.1-6.1,2.1,2.1-14.7,14.6-2.2-2.3,2-12.9a50.5,50.5,0,0,1,1.7-8.1H879l-5.9,6.2-6.3,6.2Z" transform="translate(-143.3 -135.5)" style="fill:#fff;stroke:#fff;stroke-miterlimit:10"/><path d="M897.3,268.6l-6.7-6.7-5.3,5.3,7.5,7.5-1.6,1.5-9.7-9.7,14.7-14.6,9.3,9.4-1.6,1.5-7.1-7-4.6,4.6,6.7,6.7Z" transform="translate(-143.3 -135.5)" style="fill:#fff;stroke:#fff;stroke-miterlimit:10"/><path d="M257.3,274.3l-14.6-14.7,2.4-2.4,13,1.9a61.5,61.5,0,0,1,7.8,1.7h.1a79.2,79.2,0,0,1-6.3-5.7l-6.1-6.2,2.1-2.1,14.6,14.7-2.2,2.2-13-1.9c-2.8-.5-5.6-1-8.1-1.7h0l6.2,5.8,6.2,6.3Z" transform="translate(-143.3 -135.5)" style="fill:#fff;stroke:#fff;stroke-miterlimit:10"/><path d="M277,254.7l-19-10.3,2.4-2.3,9.4,5.4a67.8,67.8,0,0,1,6.4,3.8h0a61,61,0,0,1-3.6-6.5l-5.1-9.7,2.3-2.3,9.5,5.4a52.5,52.5,0,0,1,6.3,3.8h0c-1.2-1.9-2.4-4.1-3.7-6.4l-5.1-9.7,2.3-2.3,9.8,19.6-2.4,2.3-9.8-5.5a56.8,56.8,0,0,1-5.9-3.6h0a63.9,63.9,0,0,1,3.4,6.1l5.2,10.1Z" transform="translate(-143.3 -135.5)" style="fill:#fff;stroke:#fff;stroke-miterlimit:10"/><path d="M292.4,865.4a12.1,12.1,0,0,0-3-5c-2.3-2.3-4.6-2.6-6.1-1.1s-1.2,3.1.3,6.2,2.5,6.6.4,8.6-6.2,1.8-9.6-1.6a13.4,13.4,0,0,1-3.1-4.5l2.2-.9a10.2,10.2,0,0,0,2.6,3.9c2.3,2.4,4.4,2.1,5.4,1.1s1-3.1-.6-6.2-2.2-6.6,0-8.7,6.2-2.3,10.2,1.8a14.6,14.6,0,0,1,3.5,5.3Z" transform="translate(-143.3 -135.5)" style="fill:#fff;stroke:#fff;stroke-miterlimit:10"/><path d="M279,847.3l-10.3,19-2.4-2.4,5.4-9.4c1.4-2.3,2.7-4.6,3.8-6.3h0a60.1,60.1,0,0,1-6.5,3.7l-9.7,5.1-2.4-2.4,5.4-9.5c1.3-2.2,2.6-4.4,3.8-6.2h0l-6.5,3.6-9.7,5.1-2.2-2.3,19.6-9.7,2.3,2.4-5.5,9.7a43.4,43.4,0,0,1-3.7,5.9h.1a52.7,52.7,0,0,1,6.1-3.5l10.1-5.1Z" transform="translate(-143.3 -135.5)" style="fill:#fff;stroke:#fff;stroke-miterlimit:10"/><polygon points="718.7 140 695.4 163.3 698.3 166.1 721.6 142.8 718.7 140" style="fill:#fff;stroke:#fff;stroke-miterlimit:10"/><polygon points="169.8 687.6 146.5 710.9 149.4 713.7 172.7 690.4 169.8 687.6" style="fill:#fff;stroke:#fff;stroke-miterlimit:10"/><polygon points="693.2 682.5 690.4 685.4 713.7 708.6 716.5 705.8 693.2 682.5" style="fill:#fff;stroke:#fff;stroke-miterlimit:10"/><polygon points="141.5 137.8 164.8 161 167.6 158.2 144.3 134.9 141.5 137.8" style="fill:#fff;stroke:#fff;stroke-miterlimit:10"/><path d="M887.2,840.1a13,13,0,0,0-4.9,3c-2.3,2.3-2.6,4.6-1.2,6.1s3.1,1.3,6.2-.3,6.7-2.4,8.7-.4,1.8,6.2-1.6,9.6a13.7,13.7,0,0,1-4.5,3l-1-2.1a10.4,10.4,0,0,0,4-2.6c2.4-2.3,2.1-4.4,1.1-5.4s-3.1-1-6.3.6-6.5,2.2-8.7,0-2.2-6.1,1.8-10.2a14.4,14.4,0,0,1,5.4-3.4Z" transform="translate(-143.3 -135.5)" style="fill:#fff;stroke:#fff;stroke-miterlimit:10"/><path d="M869.9,866.4l6.7-6.6-5.3-5.3-7.5,7.4-1.6-1.6,9.8-9.6,14.6,14.6-9.3,9.3-1.6-1.6,7.1-7-4.7-4.7-6.7,6.7Z" transform="translate(-143.3 -135.5)" style="fill:#fff;stroke:#fff;stroke-miterlimit:10"/><path d="M612.8,557.2a39.5,39.5,0,0,0-1-8.5L575.1,244.8h0L538.4,548.7a39.5,39.5,0,0,0-1,8.5,12.7,12.7,0,0,0,.1,2,14.1,14.1,0,0,0-.1,2,40.5,40.5,0,0,0,1,8.6l36.7,303.8h0l36.7-303.8a40.5,40.5,0,0,0,1-8.6c0-.6-.1-1.3-.1-2S612.8,557.9,612.8,557.2Zm-37.7,19.9a17.9,17.9,0,1,1,18.2-17.9A18.1,18.1,0,0,1,575.1,577.1Z" transform="translate(-143.3 -135.5)" style="fill:#fff;stroke:#fff;stroke-miterlimit:10"/><path d="M568.7,597.9a34.1,34.1,0,0,0,8.5-1l304.6-36.6h0L577.2,523.7a39.5,39.5,0,0,0-8.5-1h-4.1a39.5,39.5,0,0,0-8.5,1L251.5,560.3h0l304.6,36.6a34.1,34.1,0,0,0,8.5,1h4.1Zm-20-37.6a18,18,0,1,1,17.9,18.2A18.1,18.1,0,0,1,548.7,560.3Z" transform="translate(-143.3 -135.5)" style="fill:#fff;stroke:#fff;stroke-miterlimit:10"/><path d="M570.3,573.1a18.2,18.2,0,0,1-18.2-18.2H254.9l304.6,36.6a34.9,34.9,0,0,0,8.6,1,37.6,37.6,0,0,0,37.6-37.6H588.5A18.2,18.2,0,0,1,570.3,573.1Z" transform="translate(-143.3 -135.5)" style="fill:#fff;stroke:#fff;stroke-miterlimit:10"/><path d="M568.1,517.3a40.5,40.5,0,0,0-8.6,1L254.9,554.9H552.1a18.2,18.2,0,0,1,36.4,0h17.2A37.6,37.6,0,0,0,568.1,517.3Z" transform="translate(-143.3 -135.5)" style="fill:#fff;stroke:#fff;stroke-miterlimit:10"/><path d="M569.6,536.8a18.1,18.1,0,0,1,18.2,18.1H885L580.4,518.3a39.5,39.5,0,0,0-8.5-1,37.6,37.6,0,0,0-37.7,37.6h17.2A18.2,18.2,0,0,1,569.6,536.8Z" transform="translate(-143.3 -135.5)" style="fill:#fff;stroke:#fff;stroke-miterlimit:10"/><path d="M571.9,592.5a34.1,34.1,0,0,0,8.5-1L885,554.9H587.8a18.2,18.2,0,0,1-36.4,0H534.2A37.6,37.6,0,0,0,571.9,592.5Z" transform="translate(-143.3 -135.5)" style="fill:#fff;stroke:#fff;stroke-miterlimit:10"/><path d="M590.8,555.5a21.1,21.1,0,1,1-21.1-21.1A21.1,21.1,0,0,1,590.8,555.5Z" transform="translate(-143.3 -135.5)" style="fill:#fff;stroke:#fff;stroke-miterlimit:10"/><path d="M589.6,555.5a19.9,19.9,0,1,1-19.9-19.9A19.9,19.9,0,0,1,589.6,555.5Z" transform="translate(-143.3 -135.5)" style="fill:#fff;stroke:#fff;stroke-miterlimit:10"/><ellipse cx="426.4" cy="420" rx="11.3" ry="11.2" style="fill:#fff;stroke:#fff;stroke-miterlimit:10"/><ellipse cx="426.4" cy="420" rx="9.8" ry="9.8" style="fill:#fff;stroke:#fff;stroke-miterlimit:10"/><path d="M577.9,555.5a8.2,8.2,0,1,1-16.4,0,8.2,8.2,0,1,1,16.4,0Z" transform="translate(-143.3 -135.5)" style="fill:#fff;stroke:#fff;stroke-miterlimit:10"/><path d="M575.5,555.5a5.8,5.8,0,0,1-11.6,0,5.8,5.8,0,0,1,11.6,0Z" transform="translate(-143.3 -135.5)" style="fill:#fff;stroke:#fff;stroke-miterlimit:10"/></svg>