<svg xmlns="http://www.w3.org/2000/svg" viewBox="0 0 75.4 628.6"><title>1811</title><path d="M587.9,555.6a18.2,18.2,0,0,1-18.2,18.1V870.2l36.7-303.9a39.5,39.5,0,0,0,1-8.5,37.6,37.6,0,0,0-37.7-37.6v17.2A18.2,18.2,0,0,1,587.9,555.6Z" transform="translate(-532 -241.6)" style="fill:#3a6477"/><path d="M532,557.8a34.1,34.1,0,0,0,1,8.5l36.7,303.9h0V573.7a18.2,18.2,0,1,1,0-36.3V520.2h0A37.6,37.6,0,0,0,532,557.8Z" transform="translate(-532 -241.6)" style="fill:#4c819e"/><path d="M551.5,556.3a18.1,18.1,0,0,1,18.2-18.2V241.6L533,545.5a34.1,34.1,0,0,0-1,8.5,37.6,37.6,0,0,0,37.7,37.6V574.4A18.1,18.1,0,0,1,551.5,556.3Z" transform="translate(-532 -241.6)" style="fill:#892121"/><path d="M607.4,554a39.5,39.5,0,0,0-1-8.5L569.7,241.6h0V538.1a18.2,18.2,0,1,1,0,36.3v17.2h0A37.6,37.6,0,0,0,607.4,554Z" transform="translate(-532 -241.6)" style="fill:#682121"/><path d="M590.8,555.5a21.1,21.1,0,1,1-21.1-21.1A21.1,21.1,0,0,1,590.8,555.5Z" transform="translate(-532 -241.6)" style="fill:#cfd1d2"/><path d="M589.6,555.5a19.9,19.9,0,1,1-19.9-19.9A19.9,19.9,0,0,1,589.6,555.5Z" transform="translate(-532 -241.6)" style="fill:#919395"/><ellipse cx="37.7" cy="313.8" rx="11.3" ry="11.2" style="fill:#cfd1d2"/><ellipse cx="37.7" cy="313.8" rx="9.8" ry="9.8" style="fill:#a5a6a9"/><path d="M577.9,555.5a8.2,8.2,0,1,1-16.4,0,8.2,8.2,0,1,1,16.4,0Z" transform="translate(-532 -241.6)" style="fill:#1a1a1a"/><path d="M575.5,555.5a5.8,5.8,0,0,1-11.6,0,5.8,5.8,0,0,1,11.6,0Z" transform="translate(-532 -241.6)" style="fill:#14294c"/></svg>